<svg viewBox="0 0 20 20" xmlns="http://www.w3.org/2000/svg"><path d="m17.87 6.27a.55.55 0 0 0 -.15-.36l-3.27-3.26a.51.51 0 0 0 -.71 0l-1.85 1.86-1.84 1.83-3.94-3.94a.51.51 0 0 0 -.71 0l-3.25 3.26a.5.5 0 0 0 0 .71l3.93 3.94-2.75 2.75-.13.14a.47.47 0 0 0 -.15.35v3.27a.5.5 0 0 0 .5.5h3.27a.51.51 0 0 0 .35-.15l2.89-2.89 3.33 3.33a.49.49 0 0 0 .35.15.51.51 0 0 0 .36-.15l3.25-3.26a.48.48 0 0 0 0-.7l-3.35-3.33 3.7-3.7a.51.51 0 0 0 .17-.35zm-10.87 9.73-2.61-2.58 7.85-7.85 2.56 2.56zm-1.55-7.74.9-.91a.49.49 0 0 0 -.7-.7l-.91.9-1.53-1.55 2.55-2.54 3.58 3.59-2.55 2.55zm-1.4 6.23 1.83 1.83h-1.83zm12.24-.49-2.55 2.55-1.29-1.29.9-.91a.49.49 0 0 0 -.7-.7l-.91.9-1-1 2.58-2.55zm-.78-6.58-2.51-2.56 1.1-1.15 2.56 2.56z" fill="currentColor"/></svg>
