<svg viewBox="0 0 20 20" xmlns="http://www.w3.org/2000/svg" aria-hidden="true"><path d="M17.87 6.27a.55.55 0 00-.15-.36l-3.27-3.26a.51.51 0 00-.71 0l-1.85 1.86-1.84 1.83L6.11 2.4a.51.51 0 00-.71 0L2.15 5.66a.5.5 0 000 .71l3.93 3.94-2.75 2.75-.13.14a.47.47 0 00-.15.35v3.27a.5.5 0 00.5.5h3.27a.51.51 0 00.35-.15l2.89-2.89 3.33 3.33a.49.49 0 00.35.15.51.51 0 00.36-.15l3.25-3.26a.48.48 0 000-.7L14 10.32l3.7-3.7a.51.51 0 00.17-.35zM7 16l-2.61-2.58 7.85-7.85 2.56 2.56zM5.45 8.26l.9-.91a.49.49 0 00-.7-.7l-.91.9L3.21 6l2.55-2.54 3.58 3.59L6.79 9.6zm-1.4 6.23l1.83 1.83H4.05zM16.29 14l-2.55 2.55-1.29-1.29.9-.91a.49.49 0 00-.7-.7l-.91.9-1-1L13.32 11zm-.78-6.58L13 4.86l1.1-1.15 2.56 2.56z" fill="currentColor"/></svg>
