<svg fill="none" height="81" viewBox="0 0 78 81" width="78" xmlns="http://www.w3.org/2000/svg"><path class="blob" d="m41.6232 80.9998c-8.9906-.5524-18.656-3.2661-26.8512-9.9904-5.08581-4.1547-8.55669-9.4621-10.99114-15.49-2.1452-5.3074-3.326283-10.8309-3.663731-16.5466-.457965-7.9971.433885-15.8742 2.554981-23.6071.94004-3.3862 2.38622-6.53224 4.67604-9.24599 2.96475-3.55428 6.82125-5.475518 11.40095-5.979842 4.4832-.480309 8.8218.336222 13.1122 1.536992 10.244 2.90587 19.6443 7.42076 28.0082 14.02504 4.8448 3.8184 9.3039 8.0451 12.8712 13.1124 2.7478 3.8905 4.5314 8.1652 5.0858 12.8963.4821 4.2267-.0482 8.3573-1.4944 12.3199-2.8924 8.0211-7.5203 14.8896-14.1728 20.293-5.5197 4.587-11.9553 6.7003-20.5361 6.6763z"/><path class="number" d="m43.3145 34.4824c0 1.2487-.3783 2.3106-1.1348 3.1856s-1.8184 1.4765-3.1856 1.8047v.082c1.6133.2005 2.8347.6927 3.6641 1.4765.8294.7748 1.2441 1.823 1.2441 3.1446 0 1.9232-.6972 3.4225-2.0918 4.498-1.3945 1.0664-3.386 1.5996-5.9746 1.5996-2.1692 0-4.0924-.36-5.7695-1.08v-3.5957c.7747.3919 1.627.7109 2.5566.957.9297.2461 1.8503.3691 2.7618.3691 1.3945 0 2.4244-.237 3.0898-.7109.6654-.474.9981-1.235.9981-2.2832 0-.9388-.3829-1.6042-1.1485-1.9961s-1.987-.5879-3.664-.5879h-1.5176v-3.2402h1.5449c1.5495 0 2.6797-.2006 3.3906-.6016.7201-.4101 1.0801-1.1074 1.0801-2.0918 0-1.513-.9479-2.2695-2.8437-2.2695-.6563 0-1.3262.1094-2.0098.3281-.6745.2188-1.4264.597-2.2559 1.1348l-1.955-2.9121c1.8229-1.3125 3.9967-1.9688 6.5214-1.9688 2.069 0 3.7006.4193 4.8946 1.2578 1.2031.8386 1.8047 2.0052 1.8047 3.5z"/></svg>
