<svg class="blob-1" viewBox="0 0 80 87" xmlns="http://www.w3.org/2000/svg" aria-hidden="true"><path class="blob" d="M36.453 0c4.744.139 9.28 1.18 13.771 2.567C55.798 4.3 61.025 6.706 65.677 10.29c6.057 4.648 10.018 10.729 12.206 18.013 1.174 3.907 1.957 7.861 2.096 11.954.276 8.417-2.12 16.048-6.84 22.962-3.409 4.971-7.738 8.971-12.666 12.37a79.147 79.147 0 01-20.174 10.036c-3.5 1.156-7.093 1.595-10.778 1.272-4.744-.44-8.912-2.266-12.597-5.226-3.708-2.983-6.587-6.706-9.005-10.776C4.557 65.253 2.047 59.288.803 52.813-.763 44.558-.026 36.488 2.9 28.626c2.717-7.33 6.586-13.966 12.136-19.515 4.376-4.37 9.535-7.33 15.66-8.417C32.608.324 34.541.208 36.454 0z"/><path class="number" d="M43.566 56h-4.224V44.434l.04-1.9.07-2.079c-.703.702-1.19 1.162-1.464 1.38l-2.297 1.847-2.037-2.543 6.44-5.127h3.472z"/></svg>
