<svg class="blob-3" viewBox="0 0 78 81" xmlns="http://www.w3.org/2000/svg" aria-hidden="true"><path class="blob" d="M41.623 81c-8.99-.553-18.656-3.266-26.851-9.99-5.086-4.155-8.557-9.463-10.991-15.49C1.636 50.211.455 44.687.117 38.972c-.458-7.997.434-15.874 2.555-23.607.94-3.387 2.386-6.533 4.676-9.246C10.313 2.565 14.17.644 18.75.14c4.483-.48 8.822.336 13.112 1.537 10.244 2.906 19.645 7.42 28.008 14.025 4.845 3.818 9.304 8.045 12.872 13.112 2.748 3.89 4.531 8.165 5.086 12.897.482 4.226-.049 8.357-1.495 12.32-2.892 8.02-7.52 14.89-14.173 20.292-5.52 4.588-11.955 6.7-20.536 6.677z"/><path class="number" d="M43.315 34.482c0 1.25-.379 2.311-1.135 3.186s-1.819 1.476-3.186 1.805v.082c1.613.2 2.835.692 3.664 1.476.83.775 1.244 1.823 1.244 3.145 0 1.923-.697 3.422-2.091 4.498-1.395 1.066-3.386 1.6-5.975 1.6-2.17 0-4.092-.36-5.77-1.08v-3.596c.775.392 1.627.71 2.557.957.93.246 1.85.369 2.762.369 1.394 0 2.424-.237 3.09-.711.665-.474.998-1.235.998-2.283 0-.94-.383-1.605-1.149-1.996s-1.987-.588-3.664-.588h-1.517v-3.24h1.545c1.549 0 2.68-.201 3.39-.602.72-.41 1.08-1.107 1.08-2.092 0-1.513-.948-2.27-2.844-2.27-.656 0-1.326.11-2.01.329-.674.219-1.426.597-2.255 1.135l-1.955-2.913c1.823-1.312 3.997-1.968 6.521-1.968 2.07 0 3.7.419 4.895 1.257 1.203.839 1.805 2.006 1.805 3.5z"/></svg>
