<svg class="blob-2" viewBox="0 0 90 82" xmlns="http://www.w3.org/2000/svg" aria-hidden="true"><path class="blob" d="M90 42.012c-.059 6.885-1.87 13.338-4.736 19.561-2.075 4.494-4.676 8.672-8.243 12.186-5.35 5.272-11.868 7.952-19.41 8.211-7.95.288-15.492-1.527-22.83-4.35C22.302 72.837 12.42 64.8 5.025 53.852 2.54 50.194.903 46.16.26 41.752-.5 36.51.435 31.525 2.715 26.8c3.099-6.51 7.776-11.84 13.242-16.507 5.32-4.523 11.342-7.836 18.24-9.19 17.071-3.313 31.892.749 43.935 13.425 4.356 4.58 7.834 9.766 9.91 15.758A37.242 37.242 0 0190 42.012z"/><path class="number" d="M51.094 54H37.12v-2.94l5.018-5.072c1.485-1.522 2.456-2.575 2.912-3.158.456-.592.784-1.14.984-1.64.2-.502.3-1.021.3-1.56 0-.801-.222-1.398-.669-1.79-.437-.392-1.025-.588-1.764-.588a5.09 5.09 0 00-2.255.533c-.73.356-1.49.861-2.284 1.518l-2.297-2.721c.985-.839 1.8-1.431 2.448-1.777a8.775 8.775 0 012.119-.793c.765-.192 1.622-.287 2.57-.287 1.249 0 2.352.227 3.309.683.957.456 1.7 1.094 2.228 1.914.529.82.793 1.76.793 2.817 0 .92-.164 1.786-.492 2.597-.319.802-.82 1.627-1.504 2.475-.674.848-1.868 2.055-3.582 3.623l-2.57 2.42v.191h8.709z"/></svg>
