<svg fill="none" height="87" viewBox="0 0 80 87" width="80" xmlns="http://www.w3.org/2000/svg"><path class="blob" d="m36.4528 0c4.7441.138739 9.2809 1.17928 13.7716 2.56666 5.5732 1.73423 10.8009 4.13903 15.4528 7.72314 6.0568 4.6477 10.0178 10.7291 12.2056 18.0129 1.1745 3.9078 1.9575 7.8618 2.0957 11.9546.2764 8.4168-2.1187 16.0474-6.8397 22.9612-3.4084 4.9715-7.7379 8.9718-12.6662 12.3709-6.241 4.3009-12.9656 7.6537-20.1738 10.0354-3.5005 1.1561-7.0931 1.5955-10.7778 1.2718-4.7441-.4394-8.9124-2.2661-12.5971-5.2259-3.7078-2.9828-6.5865-6.7057-9.00455-10.7753-3.36231-5.6421-5.87251-11.6078-7.116104-18.0823-1.566003-8.2549-.8290593-16.3249 2.095684-24.1867 2.71747-7.33 6.58642-13.9664 12.13647-19.5159 4.3756-4.37027 9.5342-7.33002 15.6601-8.416807 1.9114-.36997 3.8459-.485585 5.7573-.693693z"/><path class="number" d="m43.5664 56h-4.2246v-11.5664l.041-1.9004.0684-2.0781c-.7019.7018-1.1895 1.1621-1.4629 1.3808l-2.2969 1.8457-2.0371-2.5429 6.4395-5.127h3.4726z"/></svg>
