<svg fill="none" height="82" viewBox="0 0 90 82" width="90" xmlns="http://www.w3.org/2000/svg"><path class="blob" d="m90 42.0116c-.0585 6.8854-1.8708 13.3387-4.7355 19.5615-2.0754 4.4942-4.677 8.6716-8.2432 12.1863-5.3494 5.2721-11.868 7.9514-19.4097 8.2106-7.9509.2881-15.4926-1.5268-22.8297-4.3501-12.4818-4.7824-22.362-12.8201-29.75755-23.7676-2.48467-3.6588-4.121644-7.6921-4.764734-12.0999-.760017-5.2433.175395-10.2273 2.455444-14.952 3.09853-6.5109 7.77554-11.8406 13.24184-16.5077 5.3201-4.52304 11.3418-7.83611 18.2404-9.19014 17.0711-3.31306 31.8914.74907 43.9348 13.42514 4.3554 4.5806 7.834 9.7663 9.9094 15.7586 1.2862 3.8028 1.9293 7.7209 1.9585 11.7253z"/><path class="number" d="m51.0938 54h-13.9727v-2.9395l5.0176-5.0722c1.4856-1.5222 2.4564-2.5749 2.9121-3.1582.4557-.5925.7838-1.1393.9844-1.6406.2005-.5013.3007-1.0209.3007-1.5586 0-.8021-.2233-1.3991-.6699-1.7911-.4375-.3919-1.0254-.5878-1.7637-.5878-.7747 0-1.5266.1777-2.2558.5332-.7292.3554-1.4903.8613-2.2832 1.5175l-2.2969-2.7207c.9844-.8385 1.8001-1.431 2.4473-1.7773.6471-.3464 1.3535-.6107 2.1191-.793.7656-.1914 1.6224-.2871 2.5703-.2871 1.2487 0 2.3516.2279 3.3086.6836.9571.4557 1.6999 1.0938 2.2285 1.9141.5287.8203.793 1.7591.793 2.8164 0 .9205-.1641 1.7864-.4922 2.5976-.319.8021-.8203 1.627-1.5039 2.4746-.6745.8477-1.8685 2.0554-3.582 3.6231l-2.5703 2.4199v.1914h8.709z"/></svg>
