<svg class="block-community-involvement" xmlns="http://www.w3.org/2000/svg" viewBox="0 0 50 69" width="50" height="69" aria-hidden="true"><polygon class="face" points="1.5 66.5 1.5 14.5 16.5 1.5 47.5 1.5 47.5 54.5 33.5 67.5 1.5 66.5"/><path class="stroke" d="M33.5,69H1.5A1.5,1.5,0,0,1,0,67.5v-53A1.5,1.5,0,0,1,1.5,13h32A1.5,1.5,0,0,1,35,14.5v53A1.5,1.5,0,0,1,33.5,69ZM3,66H32V16H3Z"/><path class="stroke" d="M33.5,69a1.37,1.37,0,0,1-.62-.14A1.48,1.48,0,0,1,32,67.5v-53a1.49,1.49,0,0,1,.52-1.13l15-13a1.47,1.47,0,0,1,1.6-.23A1.48,1.48,0,0,1,50,1.5v53a1.48,1.48,0,0,1-.52,1.13l-15,13A1.51,1.51,0,0,1,33.5,69ZM35,15.19v49l12-10.4v-49ZM48.5,54.5h0Z"/><path class="stroke" d="M1.5,16a1.45,1.45,0,0,1-1.13-.52,1.48,1.48,0,0,1,.15-2.11l15-13a1.48,1.48,0,0,1,1-.37h32a1.5,1.5,0,0,1,0,3H17.06L2.48,15.63A1.46,1.46,0,0,1,1.5,16Z"/><path class="stroke" d="M22.38,53a1.5,1.5,0,0,1-1-.36,3.4,3.4,0,0,0-1.94-.53,7,7,0,0,0-2.35.34,11.83,11.83,0,0,1-4,.55,1.5,1.5,0,0,1,0-3,9.08,9.08,0,0,0,3.16-.42,9.8,9.8,0,0,1,3.21-.47,6.16,6.16,0,0,1,3.89,1.25,1.5,1.5,0,0,1,.16,2.12A1.49,1.49,0,0,1,22.38,53Z"/><path class="stroke" d="M22.05,43.71a5.24,5.24,0,0,1-3.29-1.07l-.1-.08-.12-.12a1.77,1.77,0,0,1-.47-.69A1.8,1.8,0,0,1,18,41c-.1-2.07,1.35-4.25,3.71-5.46a6.3,6.3,0,0,1,6.66.22.39.39,0,0,1,.1.08l.08.07a1.56,1.56,0,0,1,.51.7,1.47,1.47,0,0,1,.1.62v.07a6.21,6.21,0,0,1-3.69,5.55h0A7.41,7.41,0,0,1,22.05,43.71ZM21,40.51a3.76,3.76,0,0,0,3.05-.32h0a3.78,3.78,0,0,0,2-2.29,3.76,3.76,0,0,0-3.05.32A3.8,3.8,0,0,0,21,40.51Z"/><path class="stroke" d="M18.24,51.53a1.5,1.5,0,0,1-1.5-1.5V35.85a1.5,1.5,0,0,1,3,0V50A1.5,1.5,0,0,1,18.24,51.53Z"/><path class="stroke" d="M16.91,38.73a6.28,6.28,0,0,1-5.07-3.33,6.07,6.07,0,0,1-.23-6.49.86.86,0,0,1,.07-.1l.06-.08a1.54,1.54,0,0,1,.67-.56A1.44,1.44,0,0,1,13,28h.06a6.11,6.11,0,0,1,5.6,3.3h0a6.11,6.11,0,0,1,.23,6.49.76.76,0,0,1-.08.11.69.69,0,0,1-.11.12,1.74,1.74,0,0,1-.66.52,1.46,1.46,0,0,1-.73.14A3.11,3.11,0,0,1,16.91,38.73Zm-3-7.69a3.67,3.67,0,0,0,.54,2.82,3.7,3.7,0,0,0,2.23,1.82,3.75,3.75,0,0,0-.54-2.83h0A3.71,3.71,0,0,0,13.88,31Z"/><path class="stroke" d="M14,47.78a9.5,9.5,0,0,1-2.7-.4c-3-.9-5.32-3.17-5.68-5.67,0,0,0-.08,0-.12v-.15a1.51,1.51,0,0,1,.11-.91A1.45,1.45,0,0,1,6.12,40l.08-.09C7.86,38,11,37.34,14.05,38.24s5.32,3.18,5.68,5.67a.57.57,0,0,1,0,.13c0,.15,0,.21,0,.26a1.31,1.31,0,0,1-.14.82,1.8,1.8,0,0,1-.45.64A6.77,6.77,0,0,1,14,47.78ZM8.71,41.64a5.09,5.09,0,0,0,3.49,2.87A5,5,0,0,0,16.69,44a5.07,5.07,0,0,0-3.49-2.86h0A5,5,0,0,0,8.71,41.64Z"/></svg>
