<svg class="block-facilitation" xmlns="http://www.w3.org/2000/svg" viewBox="0 0 73.71 51.4" width="73.71" height="51.4" aria-hidden="true"><polygon class="face" points="2.5 49.9 34.5 1.9 71.5 32.9 66.5 49.9 2.5 49.9"/><path class="stroke" d="M66.37,51.4H1.5a1.49,1.49,0,0,1-1.32-.79,1.52,1.52,0,0,1,.07-1.54L32.69.67a1.55,1.55,0,0,1,2.49,0l32.43,48.4a1.49,1.49,0,0,1-1.24,2.33Zm-62.06-3H63.56L33.93,4.19Z"/><path class="stroke" d="M66.37,51.4a1.4,1.4,0,0,1-.49-.08,1.5,1.5,0,0,1-.93-1.9l5.5-16L33,2.66A1.5,1.5,0,0,1,34.89.34L73.16,31.77a1.5,1.5,0,0,1,.47,1.65l-5.84,17A1.51,1.51,0,0,1,66.37,51.4Z"/><path class="stroke" d="M35.38,45H27.77a3.56,3.56,0,0,1-.07-7.12l5-.42a1.5,1.5,0,1,1,.25,3l-5.05.43h-.13a.56.56,0,1,0,0,1.12H35l8.86-4.54a1.5,1.5,0,1,1,1.37,2.66l-9.18,4.72A1.49,1.49,0,0,1,35.38,45Z"/><path class="stroke" d="M32.58,40.44a3.62,3.62,0,0,1-3.09-1.85,3.45,3.45,0,0,1,1.08-4.74L35,31.21a1.5,1.5,0,1,1,1.54,2.57L32.1,36.44c-.12.06-.19.35,0,.65s.45.39.55.33l3.12-1.8a1.5,1.5,0,0,1,1.5,2.6L34.13,40A3.09,3.09,0,0,1,32.58,40.44Z"/><path class="stroke" d="M44.57,34H35.93a1.5,1.5,0,0,1,0-3h8.64a1.5,1.5,0,0,1,0,3Z"/><path class="stroke" d="M35.67,29.82a4.8,4.8,0,0,1-1.6-.27L34,29.5l-.15-.08a1.71,1.71,0,0,1-.67-.52,1.74,1.74,0,0,1-.32-.67c-.69-1.87,0-4.31,1.85-6.14a6.1,6.1,0,0,1,6.23-1.82l.11.05.09,0a1.6,1.6,0,0,1,1,1.07l0,.06a6.09,6.09,0,0,1-1.82,6.23A6.69,6.69,0,0,1,35.67,29.82Zm-.09-3a3.71,3.71,0,0,0,2.6-1.22A3.68,3.68,0,0,0,39.39,23a3.76,3.76,0,0,0-2.6,1.21A3.7,3.7,0,0,0,35.58,26.82Z"/><path class="stroke" d="M34.12,34.63a1.5,1.5,0,0,1-1.5-1.5v-7.7a1.5,1.5,0,0,1,3,0v7.7A1.5,1.5,0,0,1,34.12,34.63Z"/><path class="stroke" d="M32.48,31.26a6.76,6.76,0,0,1-4.64-2.11A6.12,6.12,0,0,1,26,22.92a1.17,1.17,0,0,1,.05-.11l0-.09a1.51,1.51,0,0,1,.51-.71,1.54,1.54,0,0,1,.57-.29l.06,0a6.11,6.11,0,0,1,6.23,1.81h0a6.1,6.1,0,0,1,1.82,6.23.5.5,0,0,1,0,.13c0,.07-.06.11-.07.14a1.92,1.92,0,0,1-.52.67A1.81,1.81,0,0,1,34,31,4.44,4.44,0,0,1,32.48,31.26Zm-3.73-6.83A3.71,3.71,0,0,0,30,27a3.71,3.71,0,0,0,2.6,1.21,3.68,3.68,0,0,0-1.21-2.6h0A3.63,3.63,0,0,0,28.75,24.43Z"/></svg>
