<svg xmlns="http://www.w3.org/2000/svg" viewBox="0 0 60 58" width="60" height="58"><g class="face-green-200"><polygon class="face" points="1.5 16.5 16.5 3.5 57.5 3.5 57.5 45.5 43.5 57.5 1.5 57.5 1.5 16.5"/><path class="stroke" d="M43.5,58H1.5A1.5,1.5,0,0,1,0,56.5v-42A1.5,1.5,0,0,1,1.5,13h42A1.5,1.5,0,0,1,45,14.5v42A1.5,1.5,0,0,1,43.5,58ZM3,55H42V16H3Z"/><path class="stroke" d="M43.5,58a1.37,1.37,0,0,1-.62-.14A1.48,1.48,0,0,1,42,56.5v-42a1.49,1.49,0,0,1,.52-1.13l15-13a1.47,1.47,0,0,1,1.6-.23A1.48,1.48,0,0,1,60,1.5v42a1.48,1.48,0,0,1-.52,1.13l-15,13A1.51,1.51,0,0,1,43.5,58ZM45,15.19v38l12-10.4v-38ZM58.5,43.5h0Z"/><path class="stroke" d="M1.5,16a1.49,1.49,0,0,1-1.13-.52,1.48,1.48,0,0,1,.15-2.11l15-13a1.48,1.48,0,0,1,1-.37h42a1.5,1.5,0,0,1,0,3H17.06L2.48,15.63A1.46,1.46,0,0,1,1.5,16Z"/><circle class="stroke" cx="17.9" cy="44.7" r="1.75"/><path class="stroke" d="M17.9,47a2.25,2.25,0,1,1,2.25-2.25A2.25,2.25,0,0,1,17.9,47Zm0-3.5a1.25,1.25,0,1,0,1.25,1.25A1.25,1.25,0,0,0,17.9,43.45Z"/><circle class="stroke" cx="13.1" cy="48.75" r="1.75"/><path class="stroke" d="M13.1,51a2.25,2.25,0,1,1,2.25-2.25A2.25,2.25,0,0,1,13.1,51Zm0-3.5a1.25,1.25,0,1,0,1.25,1.25A1.25,1.25,0,0,0,13.1,47.5Z"/><path class="stroke" d="M31.9,40.4h-18a5.1,5.1,0,0,1-1.4-10,8.67,8.67,0,0,1,15.61-3.8,5.11,5.11,0,0,1,5.12,3.77,5.1,5.1,0,0,1-1.33,10ZM21.1,26a5.71,5.71,0,0,0-5.7,5.7,1.5,1.5,0,0,1-1.5,1.5,2.1,2.1,0,1,0,0,4.2h18a2.1,2.1,0,1,0,0-4.2,1.5,1.5,0,0,1-1.5-1.5,2.1,2.1,0,0,0-2.1-2.1,2.51,2.51,0,0,0-.54.08,1.49,1.49,0,0,1-1.7-.72A5.7,5.7,0,0,0,21.1,26Zm12.3,5.7h0Z"/></g></svg>
