<svg class="boat" width="55" height="47" viewBox="0 0 55 47" fill="none" xmlns="http://www.w3.org/2000/svg">
<path class="water" d="M29.1699 14.3346C23.1086 14.3346 2.65181 15.3198 0 27.1419C1.51532 36.5011 0.649182 50.1354 5.30361 46.3528C11.3649 41.427 19.5625 46.3528 28.0334 46.3528C35.61 46.3528 48.4902 44.7109 52.6573 41.427C54.4252 31.0826 56.9002 11.182 52.6573 14.3346C47.3537 18.2753 35.2311 14.3346 29.1699 14.3346Z"/>
<path class="hull" d="M28 35.9209C35.3094 35.9209 40.5 35.9209 44.8496 29.9438L12 29.9437L14 34.9209C14 34.9209 18.7995 35.9209 28 35.9209Z"/>
<line class="mast" x1="33.1514" y1="29.9443" x2="33.1514" y2="9.52358" />
<path class="sail" d="M33.9873 23.4955V2L14.6413 23.4955H33.9873Z" />
</svg>
