<svg class="boat" xmlns="http://www.w3.org/2000/svg" aria-hidden="true" viewBox="0 0 55 47"><path class="water" d="M29.17 14.335c-6.061 0-26.518.985-29.17 12.807 1.515 9.36.65 22.993 5.304 19.21 6.06-4.925 14.259 0 22.73 0 7.576 0 20.456-1.641 24.623-4.925 1.768-10.344 4.243-30.245 0-27.092-5.303 3.94-17.426 0-23.487 0z"/><path class="hull" d="M28 35.92c7.31 0 12.5 0 16.85-5.976H12l2 4.977s4.8 1 14 1z"/><path class="mast" d="M33.151 29.944V9.524"/><path class="sail" d="M33.987 23.495V2L14.641 23.495h19.346z"/></svg>
