<svg class="bridge" xmlns="http://www.w3.org/2000/svg" aria-hidden="true" viewBox="0 0 47 26"><path d="M0 12.285V26h4.273c0-4.788 3.828-8.692 8.545-8.692 4.713 0 8.537 3.913 8.546 8.692h4.272c0-4.788 3.825-8.692 8.542-8.692 2.268.01 4.44.93 6.041 2.558A8.773 8.773 0 0142.727 26H47V12.285c-12.464-17.458-36.793-15.266-47 0zM8.545 13H2.136a26.976 26.976 0 016.41-6.144V13zm8.546 0h-6.41V5.474a27.933 27.933 0 016.41-2.518V13zm8.545 0h-6.409V2.505a26.245 26.245 0 016.41-.268V13zm8.546 0h-6.41V2.51a26.53 26.53 0 016.41 1.91V13zm2.136 0V5.478A26.805 26.805 0 0144.864 13h-8.546z" fill="currentColor"/></svg>
