<svg viewBox="0 0 20 20" xmlns="http://www.w3.org/2000/svg"><g fill="currentColor"><path d="m12.54 9.57h-5.2a2.1 2.1 0 1 1 0-4.2h2.33l-.88.88a.51.51 0 0 0 0 .71.51.51 0 0 0 .36.15.5.5 0 0 0 .35-.11l1.66-1.7a.51.51 0 0 0 0-.7l-1.66-1.66a.5.5 0 0 0 -.71 0 .51.51 0 0 0 0 .71l.73.72h-2.18a3.1 3.1 0 0 0 0 6.2h5.2a2.1 2.1 0 0 1 0 4.2h-4.76a2.23 2.23 0 1 0 0 1h4.76a3.1 3.1 0 0 0 0-6.2zm-6.93 6.93a1.23 1.23 0 1 1 1.23-1.23 1.23 1.23 0 0 1 -1.23 1.23z"/><path d="m14.27 2.64a2.24 2.24 0 1 0 2.23 2.23 2.23 2.23 0 0 0 -2.23-2.23zm0 3.47a1.24 1.24 0 1 1 1.23-1.24 1.24 1.24 0 0 1 -1.23 1.24z"/></g></svg>
