<svg viewBox="0 0 20 20" xmlns="http://www.w3.org/2000/svg"><path d="m17.49 8.27a.5.5 0 0 0 0-.24.55.55 0 0 0 -.2-.25l-.11-.1a3.77 3.77 0 0 0 -4-.09 4.17 4.17 0 0 0 -2.08 2.25v-2.52a.53.53 0 0 0 0-.17 4.23 4.23 0 0 0 -.61-2.65 3.7 3.7 0 0 0 -3.31-2h-.11a.43.43 0 0 0 -.25 0 .47.47 0 0 0 -.23.21l-.09.11a3.68 3.68 0 0 0 .18 3.86 3.81 3.81 0 0 0 3.06 2h.36v2.32a5.67 5.67 0 0 0 -2.51-1.54 4.68 4.68 0 0 0 -4.81 1l-.07.08a.65.65 0 0 0 -.16.21.66.66 0 0 0 0 .34v.18a4.68 4.68 0 0 0 3.45 3.42 5.92 5.92 0 0 0 1.69.25 4.57 4.57 0 0 0 2.37-.62v2.68c-.27 0-.49.12-.71.18a6.85 6.85 0 0 1 -2.31.31.5.5 0 1 0 0 1 7.88 7.88 0 0 0 2.6-.35 5.06 5.06 0 0 1 1.75-.26 2.68 2.68 0 0 1 1.66.49.51.51 0 0 0 .71-.05.51.51 0 0 0 -.06-.71 3.7 3.7 0 0 0 -2.31-.73h-.29v-3.6a.67.67 0 0 0 0-.2v-1.71l.06.07.12.11a3.08 3.08 0 0 0 1.92.61 4.49 4.49 0 0 0 2.06-.52 3.78 3.78 0 0 0 2.24-3.29zm-7.66-.51a2.79 2.79 0 0 1 -2.29-1.52 2.76 2.76 0 0 1 -.25-2.74 2.8 2.8 0 0 1 2.3 1.5 2.75 2.75 0 0 1 .24 2.76zm-3.5 6a3.78 3.78 0 0 1 -2.8-2.58v-.08a3.76 3.76 0 0 1 3.78-.68 3.76 3.76 0 0 1 2.79 2.58 3.77 3.77 0 0 1 -3.77.73zm8.47-3a2.85 2.85 0 0 1 -2.87 0 2.82 2.82 0 0 1 1.7-2.31 2.82 2.82 0 0 1 2.87-.05 2.85 2.85 0 0 1 -1.7 2.35z" fill="currentColor"/></svg>
