<svg width="69" height="69" viewBox="0 0 69 69" fill="none" xmlns="http://www.w3.org/2000/svg" aria-hidden="true"><path d="M42.0555 42.0555L13.8 55.2L26.9445 26.9445L55.2 13.8L42.0555 42.0555ZM34.5 0C29.9694 0 25.4832 0.892369 21.2974 2.62616C17.1117 4.35994 13.3084 6.9012 10.1048 10.1048C3.63481 16.5748 0 25.35 0 34.5C0 43.65 3.63481 52.4252 10.1048 58.8952C13.3084 62.0988 17.1117 64.6401 21.2974 66.3738C25.4832 68.1076 29.9694 69 34.5 69C43.65 69 52.4252 65.3652 58.8952 58.8952C65.3652 52.4252 69 43.65 69 34.5C69 29.9694 68.1076 25.4832 66.3738 21.2974C64.6401 17.1117 62.0988 13.3084 58.8952 10.1048C55.6916 6.9012 51.8883 4.35994 47.7026 2.62616C43.5168 0.892369 39.0306 0 34.5 0ZM34.5 30.705C33.4935 30.705 32.5282 31.1048 31.8165 31.8165C31.1048 32.5282 30.705 33.4935 30.705 34.5C30.705 35.5065 31.1048 36.4718 31.8165 37.1835C32.5282 37.8952 33.4935 38.295 34.5 38.295C35.5065 38.295 36.4718 37.8952 37.1835 37.1835C37.8952 36.4718 38.295 35.5065 38.295 34.5C38.295 33.4935 37.8952 32.5282 37.1835 31.8165C36.4718 31.1048 35.5065 30.705 34.5 30.705Z" fill="currentColor"/></svg>
