<svg viewBox="0 0 20 20" xmlns="http://www.w3.org/2000/svg"><path d="m16.63 14.13-6.57 3.37h-5.42a1 1 0 0 1 -1-1 1 1 0 0 1 1.05-1l3.67-.31h.17a1.85 1.85 0 0 0 .47-.19l2.28-1.31a.5.5 0 1 0 -.5-.86l-2.31 1.27a.92.92 0 0 1 -1.2-.46.93.93 0 0 1 .21-1.28l3.1-1.86h6.28a.5.5 0 0 0 0-1h-6.35a.48.48 0 0 0 -.33.06l-.43.26v-2.43a3.18 3.18 0 0 0 .62.07 4.34 4.34 0 0 0 3-1.35 3.9 3.9 0 0 0 1.15-3.91v-.07a.44.44 0 0 0 -.1-.22.54.54 0 0 0 -.28-.19l-.14-.06a3.91 3.91 0 0 0 -3.9 1.19 4.73 4.73 0 0 0 -1.1 1.58l-.12.08a5.12 5.12 0 0 0 -.53-.62 3.88 3.88 0 0 0 -3.88-1.19h-.08a.62.62 0 0 0 -.22.1.54.54 0 0 0 -.17.31l-.06.13a3.92 3.92 0 0 0 1.17 3.91 4.39 4.39 0 0 0 3 1.35 2.93 2.93 0 0 0 .67-.09v2l-1.78 1.09a1.92 1.92 0 0 0 -.57 2.64l.15.2-1.91.16a2 2 0 0 0 0 4h5.54a.46.46 0 0 0 .23-.06l6.65-3.44a.51.51 0 0 0 .21-.68.49.49 0 0 0 -.67-.19zm-5.85-10.57a3 3 0 0 1 2.82-1 3 3 0 0 1 -1 2.83 3 3 0 0 1 -2.82 1 1.83 1.83 0 0 1 -.06-.25v-.65a3.6 3.6 0 0 1 1.06-1.93zm-2.15 3.85a3 3 0 0 1 -2.81-1 2.94 2.94 0 0 1 -1-2.81 3 3 0 0 1 2.82 1 3 3 0 0 1 .99 2.81z" fill="currentColor"/></svg>
