<svg xmlns="http://www.w3.org/2000/svg" viewBox="0 0 20 20" aria-hidden="true"><path d="M14.49,8.67a.49.49,0,0,0,.42-.24l1.27-2.09a.53.53,0,0,0,0-.52L14.91,3.74a.49.49,0,0,0-.42-.24h-3V3a1.5,1.5,0,0,0-3,0v.5H5a.5.5,0,0,0-.5.5V8.17a.5.5,0,0,0,.5.5H8.5v.66h-3a.49.49,0,0,0-.42.24L3.82,11.66a.53.53,0,0,0,0,.52l1.27,2.08a.49.49,0,0,0,.42.24h3v3H7a.5.5,0,0,0,0,1h6a.5.5,0,0,0,0-1H11.5v-3H15a.5.5,0,0,0,.5-.5V9.83a.5.5,0,0,0-.5-.5H11.5V8.67ZM9.5,3a.5.5,0,0,1,1,0v.5h-1Zm-4,1.5h8.7l1,1.58-1,1.59H5.5Zm5,13h-1v-3h1Zm4-4H5.8l-1-1.58,1-1.59h8.7Zm-4-4.17h-1V8.67h1Z" fill="currentColor" /></svg>
