<svg viewBox="0 0 20 20" xmlns="http://www.w3.org/2000/svg"><g fill="currentColor"><path d="m8.5 9.5a3 3 0 1 0 3 3 3 3 0 0 0 -3-3zm0 5a2 2 0 1 1 2-2 2 2 0 0 1 -2 2z"/><path d="m16.5 3a.5.5 0 0 0 -.5-.5h-12a.5.5 0 0 0 -.5.5v14a.5.5 0 0 0 .5.5h9a.41.41 0 0 0 .19 0 .36.36 0 0 0 .16-.11l3-3a.48.48 0 0 0 .12-.22.64.64 0 0 0 0-.07s0 0 0-.06zm-12 .5h11v10h-2.5a.5.5 0 0 0 -.5.5v2.5h-8zm9 12.29v-1.29h1.29z"/><path d="m10.54 8.5h3.46a.5.5 0 0 0 .43-.25.5.5 0 0 0 0-.5l-1.73-3a.5.5 0 0 0 -.43-.25.52.52 0 0 0 -.44.25l-1.73 3a.5.5 0 0 0 0 .5.52.52 0 0 0 .44.25zm1.73-2.5.86 1.5h-1.73z"/></g></svg>
