<svg xmlns="http://www.w3.org/2000/svg" xmlns:xlink="http://www.w3.org/1999/xlink" viewBox="0 0 588.82 517.82" width="588.82" height="517.82"><defs><linearGradient id="yellow_gradient" x1="273.31" y1="474.79" x2="273.31" y2="109.22" gradientUnits="userSpaceOnUse"><stop offset="0" stop-color="#f9ac17" stop-opacity="0"/><stop offset="1" stop-color="#f9ac17"/></linearGradient><linearGradient id="red_gradient" x1="477.42" y1="320.51" x2="477.42" y2="213.09" gradientUnits="userSpaceOnUse"><stop offset="0.05" stop-color="#e55c69" stop-opacity="0"/><stop offset="1" stop-color="#e55c69"/></linearGradient><linearGradient id="red_gradient-2" x1="404.6" y1="550.68" x2="404.6" y2="211.71" xlink:href="#red_gradient"/><linearGradient id="linear-gradient" x1="117.85" y1="349.51" x2="117.85" y2="242.09" gradientUnits="userSpaceOnUse"><stop offset="0" stop-color="#1b8aed" stop-opacity="0"/><stop offset="1" stop-color="#1b8aed"/></linearGradient><linearGradient id="linear-gradient-2" x1="190.67" y1="579.68" x2="190.67" y2="240.71" xlink:href="#linear-gradient"/><linearGradient id="linear-gradient-3" x1="148.45" y1="406.58" x2="148.45" y2="321.48" gradientUnits="userSpaceOnUse"><stop offset="0" stop-color="#1b8aed" stop-opacity="0.5"/><stop offset="1" stop-color="#1b8aed"/></linearGradient><linearGradient id="linear-gradient-4" x1="68.19" y1="353.05" x2="68.19" y2="330.44" xlink:href="#linear-gradient-3"/><linearGradient id="linear-gradient-5" x1="249.59" y1="300.93" x2="249.59" y2="168.85" gradientUnits="userSpaceOnUse"><stop offset="0" stop-color="#f9ac17" stop-opacity="0.5"/><stop offset="1" stop-color="#f9ac17"/></linearGradient><linearGradient id="linear-gradient-6" x1="446.82" y1="377.58" x2="446.82" y2="292.48" gradientUnits="userSpaceOnUse"><stop offset="0.05" stop-color="#e55c69" stop-opacity="0.5"/><stop offset="1" stop-color="#e55c69"/></linearGradient><linearGradient id="linear-gradient-7" x1="527.08" y1="324.05" x2="527.08" y2="301.44" xlink:href="#linear-gradient-6"/></defs><title>Homepage-Illustration</title><g id="Layer_1" data-name="Layer 1"><path class="cls-1" d="M555.26,280.89a270.4,270.4,0,0,1-36.21,126.19c-27.52,47.29-69,75.09-122.72,84.93-42,7.69-83.79,5.63-125.56-1.67-38.88-6.79-76.17-18.41-111.28-36.6-38.81-20.13-73.26-46.06-102.08-79C38,352.56,26.11,326.57,22.83,297c-2.62-23.54,1.8-46.07,10.2-68,15.54-40.6,41-74.41,71.47-104.84C138.72,90,180.22,69.45,227,58.55c29.65-6.92,59.59-10.44,90-8.54,47.12,3,90.25,18.07,129.74,43.76,27.44,17.85,51.94,39,71.28,65.62C542.91,193.72,555.25,232.13,555.26,280.89Z"/><path class="cls-2" d="M231.3,120.33c2.68-4.86,6.42-9.86,11.69-12.1,6.13-2.6,12-.09,12,6.78.08,10-5,20.71-8.19,30-2,5.79-3.84,11.58-4.43,17.69-.68,7.08-.22,14.24,0,21.33a150.82,150.82,0,0,0,3.94,32.16.78.78,0,0,0,1.52-.37c-3.49-14-4-28.78-4.19-43.15a72.81,72.81,0,0,1,3.62-24c2.4-7.33,5.13-14.53,7.19-22,1.58-5.69,4.94-16.16-1.77-19.91-9.26-5.18-18.81,5.74-22.69,12.79-.48.88.84,1.72,1.33.83Z"/><path class="cls-3" d="M205.47,144.4c3.82-7.8,8.44-16.88,16.35-21.24,3-1.66,6.93-2.69,10.26-1.35,4.24,1.69,4.92,6.35,4.3,10.39-1.44,9.41-7.36,17.48-10.54,26.32-3.63,10.09-6.31,21-6.4,31.79.36.33.74.64,1.1,1a.68.68,0,0,0,.45-.65c0-11.89,3.15-24.63,7.9-35.52,3.64-8.33,10.88-18.52,9.06-28.12-1.24-6.55-7.85-8.45-13.61-6.62-8.65,2.75-14.18,11.62-18.18,19.19-5.31,10.06-12.1,21.62-12.08,33.32.51.25,1,.5,1.53.76C195.31,163.17,201,153.53,205.47,144.4Zm51.07-28c.93-4.26,6.16-6,10.07-5.51,5.34.72,6.37,6,6.19,10.61-.36,9.12-5.14,17.88-7.31,26.67a161.71,161.71,0,0,0-4.21,28.45c-.56,8.7-1,18.94,2.09,27.29a.69.69,0,0,0,.05.52l.15.3a.75.75,0,0,0,.64.35h.09a.73.73,0,0,0,.69-.93c-2.27-5.65-2.56-12.59-2.61-18.64a149.07,149.07,0,0,1,1.51-21,146.8,146.8,0,0,1,3-15.72c1.95-3.08,4.14-6.21,7.28-8.16,3.61-2.24,7.46-1.67,7.51,3,.08,6.47-4.06,12.85-5.65,19-1.91,7.43-2.13,15.21-2,22.84.07,4.33.3,8.66.66,13,.26,3.2,1.09,6.4,1.11,9.61a.66.66,0,0,0-.13.89c.05.09.09.19.14.29a.78.78,0,0,0,1.56,0c.31-4.46-1-9.06-1.32-13.52-.37-5.36-.56-10.74-.45-16.11a72.67,72.67,0,0,1,2-16.56c1.25-4.84,3.35-9.39,4.82-14.16,1-3.29,2.06-9.54-2.25-11-4.71-1.62-9.11,2.6-12.15,6.61,1.55-5.38,3.76-10.56,5.18-15.95s2.76-15.6-3.81-18.46c-5-2.19-13,.27-14.24,6C254.93,116.92,256.34,117.28,256.54,116.36Zm-10.49,183c-7.3-6-15.07-11.33-22.45-17.2C219.91,279.23,216,276,213.36,272c-2.76-4.25-3.86-9.41-4.93-14.29-2.46-11.27-5.51-22.43-8.59-33.55-.82-2.94-1.83-5.82-2.75-8.74-.13-.44-.35-1-.58-1.61l-.23-.36c-.67-.94-1.43-1.74-2.16-2.58.77,3,1.77,5.94,2.71,8.88,2.64,8.22,4.71,16.66,6.9,25s3.1,17.82,7,25.65c3.61,7.33,11.06,12.4,17.46,17.12,14.92,11,31.73,22.73,40.77,39.4,10.1,18.66,6,40.86,4.58,61-.84,12.32-2,24.58-3.16,36.87-.59,5.91-1.13,11.82-1.52,17.75q-.29,4.43-.44,8.86c-.05,1.47-.09,2.94-.11,4.41,0,.94.37,3.24.29,4.74-.57,0-1.17.54-.75,1.14a6,6,0,0,1,.51.8.79.79,0,0,0,1.35,0c.64-1,.14-2.93.14-4,0-2.36.05-4.71.13-7.07.2-5.92.62-11.82,1.13-17.72.95-11,2.24-21.89,3.13-32.86q1.26-15.39,2.32-30.81c.7-9.89,1-20-1.11-29.71C271.72,323,259.32,310.25,246.05,299.37ZM349,352.61c2.83-18.88,5.21-38.18,2.16-57.19C348.53,279.34,342.7,264.1,333,251c-11.59-15.66-25-31.5-41.37-42.3-.84-.56-1.6.82-.76,1.37,15.28,10.09,27.36,24.57,38.59,38.86A100.07,100.07,0,0,1,349,292.5c3.84,20.08,1.3,40.57-1.71,60.57-1.46,9.68-3,19.34-4.13,29.07-1.05,9.42-1.3,18.86-1.81,28.32a171.2,171.2,0,0,0,.83,32.17c1.36,10.42,2.79,20.9,2.19,31.43-.06,1,1.5,1,1.56,0,.56-9.72-.62-19.4-1.87-29a167.93,167.93,0,0,1-1.38-30.24c.49-10,.74-20,1.76-30C345.56,374,347.35,363.31,349,352.61Z"/><path class="cls-4" d="M498,232.34c-1.15-5.19-3.2-10.68-7.23-14.36-4.59-4.19-11.41-4.7-13.76,1.79-1.34,3.71-1.35,7.85-1.4,11.75-.1,6.52.27,13,.57,19.51.3,6.32.51,12.62-.67,18.86-1.33,7-3.79,13.73-5.95,20.48a151.21,151.21,0,0,1-12.8,29.76.78.78,0,0,1-1.34-.8c7.27-12.48,11.93-26.5,16.11-40.26a73.86,73.86,0,0,0,3.24-24.49c-.27-7.83-.86-15.61-.72-23.45.1-6,.14-17.06,8.13-18,10.05-1.13,15.57,10.83,17.33,18.78.22,1-1.29,1.39-1.51.4Z"/><path class="cls-5" d="M476.35,221.52c.41-5.84-6.57-10.44-12-9.75-7.11.91-8.68,11-8.83,16.66s.52,11.16.5,16.75c-1.79-4.69-4.83-10-9.81-9.74-4.55.22-5.3,6.51-5.25,9.95.08,5,.82,9.94.66,14.94a72.27,72.27,0,0,1-2.75,16.45c-1.4,5.19-3.09,10.3-4.94,15.34-1.55,4.2-4.11,8.24-5.06,12.61a.78.78,0,0,0,1.49.47l.21-.24a.65.65,0,0,0,.13-.88c.91-3.08,2.61-5.93,3.76-8.92,1.55-4,3-8.13,4.26-12.27,2.25-7.3,4.22-14.83,4.47-22.5.2-6.37-2-13.65-.1-19.84,1.37-4.48,5.22-4,8.05-.79,2.48,2.76,3.7,6.38,4.71,9.87a155.59,155.59,0,0,1-5.93,36.54c-1.75,5.79-4,12.37-7.73,17.15a.73.73,0,0,0,.39,1.09l.09,0a.71.71,0,0,0,.71-.15l.24-.25a.67.67,0,0,0,.18-.48c5.36-7.14,7.76-17.11,9.66-25.61a161,161,0,0,0,3.93-28.49c.38-9.05-1.75-18.8.46-27.66,1.12-4.48,3.59-9.25,8.91-8.44,3.91.58,8.43,3.76,8.13,8.11C474.82,222.4,476.28,222.45,476.35,221.52ZM288.83,539.74c-.23,1,1.26,1.45,1.49.47,2.37-10.28,6.67-19.93,10.91-29.55A172.29,172.29,0,0,0,311,480c2.15-9.23,4.57-18.36,6.2-27.69,1.68-9.65,2.87-19.36,4.18-29.06,2.72-20.05,6-40.43,15.33-58.63a100,100,0,0,1,31-36.36c14.79-10.57,30.44-21.08,47.94-26.49,1-.3.62-1.82-.35-1.53-18.72,5.79-36.05,17.23-51.56,29-13,9.87-22.86,22.87-29.84,37.58-8.26,17.39-11.38,36.58-14,55.5-1.46,10.72-2.74,21.48-4.7,32.13-1.81,9.84-4.38,19.55-6.72,29.28a168.08,168.08,0,0,1-9.79,28.65C294.86,521.29,291,530.25,288.83,539.74Zm77.44,6.42c-.31,1.05-1.33,2.76-1,3.91a.79.79,0,0,0,1.29.4,6.06,6.06,0,0,1,.71-.62.75.75,0,0,0-.4-1.31c.35-1.46,1.35-3.56,1.6-4.46.4-1.42.77-2.85,1.14-4.27.73-2.87,1.41-5.74,2.05-8.63,1.29-5.79,2.43-11.63,3.53-17.46,2.28-12.14,4.65-24.22,7.28-36.28,4.32-19.72,6.57-42.19,21.5-57.27,13.35-13.48,32.77-20,50.18-26.4,7.46-2.73,16-5.52,21.55-11.54,5.91-6.43,9.41-15.24,13.87-22.67s8.8-14.93,13.64-22.09c1.76-2.6,3.58-5.19,5.18-7.9a31.9,31.9,0,0,0-2.88,2c-.11.08-.21.18-.32.27-.4.52-.76,1-1,1.39-1.69,2.54-3.47,5-5.08,7.62-6.07,9.81-12.13,19.67-17.65,29.79-2.4,4.39-4.9,9-8.74,12.34-3.6,3.1-8.3,5.08-12.66,6.86-8.74,3.57-17.69,6.52-26.38,10.22-15.79,6.73-31.26,15.46-39.65,31.07-4.73,8.78-7.3,18.52-9.4,28.21-2.18,10.06-4.34,20.15-6.41,30.23-2.21,10.78-4,21.63-6.2,32.42-1.16,5.8-2.42,11.59-3.89,17.33C367.54,541.62,366.93,543.89,366.27,546.16ZM516.06,262.69c1.73,10,4.48,20.87,1.26,30.84l1.69-.31c3.3-11.22,0-24.22-2.26-35.36-1.72-8.39-4.54-18.46-12.08-23.52-5-3.37-11.89-3.4-14.91,2.54-4.44,8.71-.35,20.51.81,29.54,1.51,11.77.92,24.88-2.37,36.3a.68.68,0,0,0,.25.75l1.33-.62c2.93-10.37,3.42-21.61,2.76-32.32-.58-9.37-4-18.77-2.74-28.21.54-4,2.5-8.34,7-8.77,3.57-.35,7,1.73,9.47,4.18C512.68,244.13,514.57,254.14,516.06,262.69Z"/><path class="cls-6" d="M97.27,261.34c1.15-5.19,3.2-10.68,7.23-14.36,4.59-4.19,11.41-4.7,13.76,1.79,1.34,3.71,1.35,7.85,1.4,11.75.1,6.52-.27,13-.57,19.51-.3,6.32-.52,12.62.67,18.86,1.33,7,3.79,13.73,5.95,20.48a150.62,150.62,0,0,0,12.8,29.76.78.78,0,0,0,1.34-.8c-7.27-12.48-11.93-26.5-16.11-40.26a73.86,73.86,0,0,1-3.24-24.49c.27-7.83.85-15.61.72-23.45-.1-6-.14-17.06-8.13-18C103,241,97.52,253,95.76,260.94c-.22,1,1.29,1.39,1.51.4Z"/><path class="cls-7" d="M120.38,250.47c-.3-4.35,4.22-7.53,8.13-8.11,5.32-.81,7.79,4,8.91,8.44,2.21,8.86.08,18.61.46,27.66A161,161,0,0,0,141.81,307c1.9,8.5,4.3,18.47,9.65,25.61a.73.73,0,0,0,.19.48l.24.25a.71.71,0,0,0,.71.15l.08,0a.73.73,0,0,0,.4-1.09c-3.76-4.78-6-11.36-7.73-17.15a155.59,155.59,0,0,1-5.93-36.54c1-3.49,2.23-7.11,4.7-9.87,2.84-3.16,6.69-3.69,8.06.79,1.88,6.19-.3,13.47-.1,19.84.25,7.67,2.22,15.2,4.46,22.5,1.28,4.14,2.72,8.23,4.27,12.27,1.15,3,2.85,5.84,3.76,8.92a.66.66,0,0,0,.12.88l.22.24a.78.78,0,0,0,1.49-.47c-1-4.37-3.51-8.41-5.06-12.61-1.86-5-3.54-10.15-4.94-15.34a71.73,71.73,0,0,1-2.75-16.45c-.16-5,.58-9.95.66-14.94.05-3.44-.7-9.73-5.25-9.95-5-.23-8,5.05-9.81,9.74,0-5.59.65-11.18.5-16.75s-1.73-15.75-8.84-16.66c-5.42-.69-12.4,3.91-12,9.75C119,251.45,120.45,251.4,120.38,250.47ZM296.51,541.41a168.08,168.08,0,0,1-9.79-28.65c-2.34-9.73-4.91-19.44-6.72-29.28-2-10.65-3.24-21.41-4.7-32.13-2.58-18.92-5.7-38.11-14-55.5-7-14.71-16.85-27.71-29.84-37.58-15.51-11.79-32.84-23.23-51.56-29-1-.29-1.31,1.23-.35,1.53,17.5,5.41,33.15,15.92,47.94,26.49a100,100,0,0,1,31,36.36c9.31,18.2,12.61,38.58,15.33,58.63,1.31,9.7,2.5,19.41,4.18,29.06,1.63,9.33,4,18.46,6.2,27.69A172.29,172.29,0,0,0,294,539.66c4.23,9.62,8.54,19.27,10.91,29.55.23,1,1.72.51,1.49-.47C304.26,559.25,300.41,550.29,296.51,541.41Zm-69.37,26.93c-1.46-5.74-2.72-11.53-3.88-17.33-2.16-10.79-4-21.64-6.2-32.42q-3.12-15.12-6.41-30.23c-2.1-9.69-4.67-19.43-9.4-28.21-8.39-15.61-23.86-24.34-39.65-31.07-8.69-3.7-17.65-6.65-26.38-10.22-4.36-1.78-9.06-3.76-12.66-6.86-3.84-3.3-6.34-7.95-8.74-12.34-5.52-10.12-11.58-20-17.65-29.79-1.61-2.6-3.39-5.08-5.08-7.62-.26-.38-.62-.87-1-1.39-.11-.09-.21-.19-.32-.27a31.9,31.9,0,0,0-2.88-2c1.6,2.71,3.42,5.3,5.18,7.9,4.84,7.16,9.19,14.68,13.63,22.09s8,16.24,13.88,22.67c5.51,6,14.09,8.81,21.55,11.54,17.41,6.38,36.83,12.92,50.18,26.4,14.92,15.08,17.18,37.55,21.49,57.27,2.64,12.06,5,24.14,7.29,36.28,1.1,5.83,2.24,11.67,3.53,17.46.64,2.89,1.32,5.76,2.05,8.63.36,1.42.74,2.85,1.14,4.27.25.9,1.25,3,1.6,4.46a.75.75,0,0,0-.4,1.31,6.06,6.06,0,0,1,.71.62.79.79,0,0,0,1.29-.4c.34-1.15-.68-2.86-1-3.91C228.34,572.89,227.73,570.62,227.14,568.34ZM89,266.73c2.43-2.45,5.9-4.53,9.47-4.18,4.54.43,6.5,4.72,7,8.77,1.25,9.44-2.16,18.84-2.74,28.21-.66,10.71-.17,22,2.76,32.32l1.32.62a.67.67,0,0,0,.26-.75c-3.29-11.42-3.88-24.53-2.37-36.3,1.16-9,5.25-20.83.81-29.54-3-5.94-9.9-5.91-14.92-2.54-7.53,5.06-10.35,15.13-12.07,23.52C76.24,298,73,311,76.26,322.22l1.69.31c-3.22-10-.47-20.82,1.26-30.84C80.69,283.14,82.59,273.13,89,266.73Z"/></g><g id="Blocks"><polygon class="cls-1" points="321.65 154.15 321.7 154.17 275.12 130.23 228.28 153.56 228.85 154.14 274.82 177.17 321.65 154.15"/><polyline class="cls-8" points="228.5 154.01 275.05 130.22 321.45 154.39"/><path class="cls-9" d="M321.65,154.2l-46.83,23-.38,57.67c2.87,1,5.77,2.12,8.67,3.41a137.93,137.93,0,0,1,20.64,11.46l17.33-8.52Z"/><path class="cls-10" d="M228.29,153.59l-.3,45.52c7.07,7.81,13.24,16.33,21.09,23.23,7.54,6.63,16.3,9.3,25.36,12.55l.38-57.67Z"/><path class="cls-11" d="M469,271.28c0,12.42-19,22.49-42.35,22.49s-42.35-10.07-42.35-22.49h-.15v57.11a20.3,20.3,0,0,0,2.44,9.56A153.89,153.89,0,0,1,407,332.28c13.61-2.85,28.22-1.24,41.47-5.45,7.45-2.37,14.1-6.51,20.62-10.89V271.28Z"/><path class="cls-12" d="M468.42,267.69v0h0Z"/><path class="cls-12" d="M434.16,291.37l-.53,38.4c3.26-.49,8.27-.95,11.43-1.82,8.75-2.41,15.67-6.79,23.36-11.22V275.41C464.8,282,452.08,287.71,434.16,291.37Z"/><ellipse class="cls-13" cx="426.61" cy="271.28" rx="42.35" ry="22.49"/><text/><polygon class="cls-14" points="177.91 253.95 123.61 304.69 177.61 323.31 177.91 253.95"/><polygon class="cls-1" points="177.58 253.94 177.57 323.43 231.39 305.09 177.58 253.94"/><path class="cls-15" d="M177.54,360.32v-37l-54-18.75v39c7.44,5,14.9,10.06,23.4,12.76C156.72,359.48,167.24,359.42,177.54,360.32Z"/><path class="cls-16" d="M226.86,376.49l4.72-1.64v-70l-54,18.38v37.35a91.68,91.68,0,0,1,10.87,1.51C201.41,364.8,215.65,369.12,226.86,376.49Z"/><line class="cls-17" x1="231.11" y1="305.17" x2="177.28" y2="254.63"/></g><g id="thumbs"><path class="cls-18" d="M235.2,264.81c-2.92-.89-6.14-5.55-8.76-7.68a47.72,47.72,0,0,1-9.68-10.65,250.61,250.61,0,0,1-14.43-24.36c-5.21-9.79-9.12-15.46-19.36-21.48-8.16-4.79-18-11.13-15.1-21.65,6.58-23.71,42.23,4.12,50.71,11.56,10.82,9.49,18.37,21.77,29,31.09,9.93,8.74,22,10.59,34,16,14.72,6.55,29.69,16.62,40.71,28.1,5.36,5.59,5.51,10.94,6.48,18,.62,4.56-.37,13,3,16.4"/><path class="cls-18" d="M141.5,399c-3.05,0-7.45-3.61-10.56-4.92a47.68,47.68,0,0,1-12.28-7.51A249.19,249.19,0,0,1,98,367.18C90.24,359.25,84.9,354.9,73.38,352c-9.18-2.31-20.42-5.63-20.56-16.56-.33-24.6,41.69-7.88,51.91-3.11,13,6.08,23.74,15.76,36.52,21.73,12,5.6,24.06,4,37.15,5.78,16,2.17,33.16,7.63,46.94,15.57,6.72,3.86,8.36,9,11.27,15.47,1.88,4.2,3.3,12.58,7.52,14.89Z"/><path class="cls-19" d="M141.68,398.19c-2.71-.32-5-1.89-7.3-3.22-2.51-1.44-5.19-2.48-7.72-3.88-6.26-3.48-11.67-8.53-16.88-13.39-8-7.44-15-16.82-24.74-22.14-9-4.92-23.61-4.38-29.58-13.68-2.63-4.09-2.66-10.64.51-14.51,2.4-2.93,6.33-3.91,9.94-4.17,8-.58,16.22,1.65,23.76,4.09a111.77,111.77,0,0,1,21.73,9.43c11.06,6.41,21.11,15.26,33.28,19.56,11.95,4.23,25.07,2.85,37.43,4.91A137.18,137.18,0,0,1,204.83,367c7.48,2.61,16.07,5.71,22.42,10.59,5.23,4,7.85,11,9.9,17,1.44,4.27,2.66,9.21,6.62,11.85.84.56,1.56-.83.72-1.39-4.92-3.28-6-11.8-8.24-17-2.17-4.91-4.55-9.4-9.1-12.49-11.32-7.69-25.94-12.14-39.2-14.92-13.61-2.85-28.22-1.24-41.48-5.45-14.42-4.59-25.85-15.82-39.22-22.56a122,122,0,0,0-20.88-8c-7.51-2.16-16.09-4.22-23.9-2.54C56.14,323.45,52.25,328,52,334.5c-.34,10.9,9.85,15.22,18.83,17.65,6.89,1.86,13.21,4,18.88,8.44,6,4.73,11,10.67,16.53,16s11.29,10.83,17.85,14.88c2.88,1.78,6,3,9,4.63,2.62,1.48,5.15,3.3,8.21,3.66,1,.12,1.35-1.41.35-1.52Z"/><path class="cls-20" d="M54.07,339.15c2.45-1.8,4.76-3.83,7.33-5.46a9.15,9.15,0,0,1,6.46-1.61,23.75,23.75,0,0,1,9.38,4.27c2.16,1.51,4.47,3.61,4.68,6.41.26,3.54-2.58,6.67-4.89,9-.71.71.45,1.77,1.16,1.05,2.37-2.38,4.9-5.34,5.26-8.83.31-2.93-1.24-5.46-3.36-7.37A27.5,27.5,0,0,0,70,331a10.46,10.46,0,0,0-7.7.39c-3.35,1.57-6.16,4.28-9.12,6.46-.81.59,0,1.91.85,1.31Z"/><path class="cls-21" d="M235.58,264.13c-2.51-1.07-4.25-3.21-6.1-5.13-2-2.09-4.29-3.84-6.32-5.89-5-5.1-8.81-11.46-12.45-17.59-5.56-9.37-9.74-20.36-17.54-28.18-7.23-7.24-21.44-10.83-24.57-21.43-1.37-4.66.44-10.95,4.56-13.78,3.12-2.14,7.16-2,10.71-1.22,7.84,1.68,15.11,6.14,21.66,10.59a112,112,0,0,1,18.22,15.14c8.81,9.25,16,20.56,26.46,28.1,10.28,7.41,23.27,9.76,34.55,15.2A137.59,137.59,0,0,1,305,251.89c6.45,4.6,13.82,10,18.55,16.45,3.9,5.33,4.47,12.71,4.74,19.1.18,4.51,0,9.58,3,13.23.65.78,1.73-.36,1.08-1.13-3.8-4.53-2.41-13-3.16-18.59-.71-5.32-1.73-10.3-5.23-14.54-8.71-10.55-21.5-18.92-33.45-25.31-12.27-6.55-26.74-9.09-38.29-16.86-12.56-8.44-20.37-22.43-31.33-32.65A121.46,121.46,0,0,0,203.1,178c-6.59-4.18-14.26-8.56-22.23-9.14-6.45-.47-11.46,2.78-13.48,9-3.38,10.37,5.19,17.38,13.13,22.23,6.08,3.71,11.57,7.5,15.76,13.38,4.43,6.23,7.59,13.34,11.4,20s7.79,13.56,12.95,19.28c2.28,2.52,5,4.55,7.34,7,2.1,2.15,4,4.61,6.85,5.82.92.39,1.69-1,.76-1.37Z"/><path class="cls-2" d="M186.35,203.71l-.72-1.32c4.64-2.53,7.1-5.17,7.53-8.06s-1.09-5.88-4.57-9.4c-7-7.08-10-5.92-17.08-3.1-1.19.47-2.49,1-3.93,1.5l-.51-1.41c1.43-.51,2.71-1,3.89-1.49,7.32-2.89,11-4.34,18.69,3.44,3.84,3.89,5.47,7.38,5,10.67S191.43,200.93,186.35,203.71Z"/><path class="cls-18" d="M453.77,370c3.05,0,7.45-3.61,10.56-4.92a47.68,47.68,0,0,0,12.28-7.51,249.19,249.19,0,0,0,20.68-19.34c7.74-7.93,13.08-12.28,24.6-15.19,9.18-2.31,20.42-5.63,20.56-16.56.33-24.6-41.69-7.88-51.91-3.11-13.05,6.08-23.74,15.76-36.52,21.73-12,5.6-24.07,4-37.15,5.78-16,2.17-33.16,7.63-46.94,15.57-6.72,3.86-8.36,9-11.27,15.47-1.88,4.2-3.3,12.58-7.52,14.89Z"/><path class="cls-22" d="M453.59,369.19c2.71-.32,5-1.89,7.3-3.22,2.51-1.44,5.19-2.48,7.72-3.88,6.26-3.48,11.67-8.53,16.88-13.39,8-7.44,15.05-16.82,24.73-22.14,9-4.92,23.62-4.38,29.59-13.68,2.63-4.09,2.65-10.64-.51-14.51-2.4-2.93-6.33-3.91-9.94-4.17-8-.58-16.22,1.65-23.76,4.09a112.12,112.12,0,0,0-21.74,9.43c-11.05,6.41-21.11,15.26-33.27,19.56-11.95,4.23-25.07,2.85-37.43,4.91A136.68,136.68,0,0,0,390.44,338c-7.48,2.61-16.07,5.71-22.42,10.59-5.24,4-7.85,11-9.9,17-1.44,4.27-2.66,9.21-6.62,11.85-.84.56-1.56-.83-.73-1.39,4.93-3.28,6-11.8,8.25-17,2.17-4.91,4.55-9.4,9.1-12.49,11.32-7.69,25.94-12.14,39.2-14.92,13.61-2.85,28.22-1.24,41.48-5.45,14.42-4.59,25.84-15.82,39.22-22.56a122,122,0,0,1,20.88-8c7.5-2.16,16.09-4.22,23.9-2.54,6.33,1.35,10.22,5.88,10.42,12.4.35,10.9-9.84,15.22-18.82,17.65-6.89,1.86-13.21,4-18.88,8.44-6,4.73-11,10.67-16.54,16s-11.28,10.83-17.84,14.88c-2.88,1.78-6,3-9,4.63-2.62,1.48-5.15,3.3-8.21,3.66-1,.12-1.35-1.41-.35-1.52Z"/><path class="cls-23" d="M541.2,310.15c-2.45-1.8-4.76-3.83-7.33-5.46a9.15,9.15,0,0,0-6.46-1.61,23.75,23.75,0,0,0-9.38,4.27c-2.16,1.51-4.47,3.61-4.68,6.41-.26,3.54,2.58,6.67,4.88,9,.72.71-.44,1.77-1.15,1.05-2.37-2.38-4.9-5.34-5.26-8.83-.31-2.93,1.24-5.46,3.35-7.37A27.54,27.54,0,0,1,525.23,302a10.46,10.46,0,0,1,7.7.39c3.35,1.57,6.16,4.28,9.12,6.46.8.59,0,1.91-.85,1.31Z"/></g></svg>
