<svg xmlns="http://www.w3.org/2000/svg" viewBox="0 0 588.8 517.8" width="588.8" height="517.8"><style>.st0{fill:#fff}.st1{fill:url(#SVGID_1_)}.st2{fill:url(#SVGID_2_)}.st3{fill:url(#SVGID_3_)}.st4{fill:url(#SVGID_4_)}.st5{fill:url(#SVGID_5_)}.st6{fill:url(#SVGID_6_)}.st7{fill:none;stroke:#1362b2;stroke-miterlimit:10;stroke-opacity:.7}.st8{fill:#64adef}.st9{fill:#1b89ec}.st10{fill:#e1a633}.st11{fill:#f0c429}.st12{fill:#fff;stroke:#df9d0b;stroke-miterlimit:10;stroke-opacity:.7}.st13{fill:#eb7e88}.st14{fill:#ea5362}.st15{fill:#edbabf}.st16{stroke:#ea5362;stroke-linecap:round;stroke-miterlimit:10;stroke-opacity:.8}.st16,.st17{fill:none}.st18{fill:url(#SVGID_7_)}.st19{fill:#1b8aed}.st20{fill:url(#SVGID_8_)}.st21{fill:#f9ac17}.st22{fill:url(#SVGID_9_)}.st23{fill:#e55c69}</style><g id="Layer_1_1_"><path class="st0" d="M555.3 280.9c-1.5 44.4-14 87.7-36.2 126.2-27.5 47.3-69 75.1-122.7 84.9-42 7.7-83.8 5.6-125.6-1.7-38.9-6.8-76.2-18.4-111.3-36.6-38.8-20.1-73.3-46.1-102.1-79C38 352.6 26.1 326.6 22.8 297c-2.6-23.5 1.8-46.1 10.2-68 15.5-40.6 41-74.4 71.5-104.8C138.7 90 180.2 69.4 227 58.5c29.6-6.9 59.6-10.4 90-8.5 47.1 3 90.2 18.1 129.7 43.8 27.4 17.8 51.9 39 71.3 65.6 24.9 34.3 37.2 72.7 37.3 121.5z"/><linearGradient id="SVGID_1_" gradientUnits="userSpaceOnUse" x1="243.2939" y1="216.7874" x2="243.2939" y2="105.4112"><stop offset="0" stop-color="#f9ac17" stop-opacity=".5"/><stop offset="1" stop-color="#f9ac17"/></linearGradient><path class="st1" d="M231.3 120.3c2.7-4.9 6.4-9.9 11.7-12.1 6.1-2.6 12-.1 12 6.8.1 10-5 20.7-8.2 30-2 5.8-3.8 11.6-4.4 17.7-.7 7.1-.2 14.2 0 21.3.2 10.8 1.5 21.6 3.9 32.2.1.4.5.7.9.6.4-.1.7-.5.6-.9-3.5-14-4-28.8-4.2-43.2-.1-8.1 1.1-16.3 3.6-24 2.4-7.3 5.1-14.5 7.2-22 1.6-5.7 4.9-16.2-1.8-19.9-9.3-5.2-18.8 5.7-22.7 12.8-.4.8.9 1.7 1.4.7z"/><linearGradient id="SVGID_2_" gradientUnits="userSpaceOnUse" x1="273.3322" y1="45.19" x2="273.3322" y2="410.6826" gradientTransform="matrix(1 0 0 -1 0 520)"><stop offset="0" stop-color="#f9ac17" stop-opacity="0"/><stop offset="1" stop-color="#f9ac17"/></linearGradient><path class="st2" d="M205.5 144.4c3.8-7.8 8.4-16.9 16.4-21.2 3-1.7 6.9-2.7 10.3-1.3 4.2 1.7 4.9 6.4 4.3 10.4-1.4 9.4-7.4 17.5-10.5 26.3-3.6 10.1-6.3 21-6.4 31.8.4.3.7.6 1.1 1 .3-.1.5-.4.4-.6 0-11.9 3.1-24.6 7.9-35.5 3.6-8.3 10.9-18.5 9.1-28.1-1.2-6.6-7.9-8.4-13.6-6.6-8.6 2.8-14.2 11.6-18.2 19.2-5.3 10.1-12.1 21.6-12.1 33.3.5.2 1 .5 1.5.8-.4-10.7 5.3-20.4 9.8-29.5zm51-28c.9-4.3 6.2-6 10.1-5.5 5.3.7 6.4 6 6.2 10.6-.4 9.1-5.1 17.9-7.3 26.7-2.2 9.3-3.7 18.9-4.2 28.4-.6 8.7-1 18.9 2.1 27.3-.1.2 0 .4 0 .5l.1.3c.1.2.4.4.6.4h.1c.4 0 .7-.3.7-.7v-.2c-2.3-5.6-2.6-12.6-2.6-18.6 0-7 .5-14 1.5-21 .7-5.3 1.7-10.5 3-15.7 2-3.1 4.1-6.2 7.3-8.2 3.6-2.2 7.5-1.7 7.5 3 .1 6.5-4.1 12.9-5.6 19-1.9 7.4-2.1 15.2-2 22.8.1 4.3.3 8.7.7 13 .3 3.2 1.1 6.4 1.1 9.6-.3.2-.3.6-.1.9 0 .1.1.2.1.3 0 .4.4.8.8.8s.8-.3.8-.8c.3-4.5-1-9.1-1.3-13.5-.4-5.4-.6-10.7-.5-16.1 0-5.6.7-11.1 2-16.6 1.2-4.8 3.4-9.4 4.8-14.2 1-3.3 2.1-9.5-2.2-11-4.7-1.6-9.1 2.6-12.1 6.6 1.5-5.4 3.8-10.6 5.2-15.9s2.8-15.6-3.8-18.5c-5-2.2-13 .3-14.2 6-.4.8 1 1.2 1.2.3zm-10.4 183c-7.3-6-15.1-11.3-22.4-17.2-3.7-3-7.6-6.2-10.2-10.2-2.8-4.2-3.9-9.4-4.9-14.3-2.5-11.3-5.5-22.4-8.6-33.6-.8-2.9-1.8-5.8-2.8-8.7-.1-.4-.4-1-.6-1.6l-.2-.4c-.7-.9-1.4-1.7-2.2-2.6.8 3 1.8 5.9 2.7 8.9 2.6 8.2 4.7 16.7 6.9 25s3.1 17.8 7 25.7c3.6 7.3 11.1 12.4 17.5 17.1 14.9 11 31.7 22.7 40.8 39.4 10.1 18.7 6 40.9 4.6 61-.8 12.3-2 24.6-3.2 36.9-.6 5.9-1.1 11.8-1.5 17.8-.2 3-.3 5.9-.4 8.9 0 1.5-.1 2.9-.1 4.4 0 .9.4 3.2.3 4.7-.6 0-1.2.5-.8 1.1.2.3.4.5.5.8.2.4.7.5 1.1.3l.3-.3c.6-1 .1-2.9.1-4 0-2.4 0-4.7.1-7.1.2-5.9.6-11.8 1.1-17.7 1-11 2.2-21.9 3.1-32.9.8-10.3 1.6-20.5 2.3-30.8.7-9.9 1-20-1.1-29.7-3.8-17.3-16.2-30.1-29.4-40.9zM349 352.6c2.8-18.9 5.2-38.2 2.2-57.2-2.6-16.1-8.5-31.3-18.2-44.4-11.6-15.7-25-31.5-41.4-42.3-.8-.6-1.6.8-.8 1.4 15.3 10.1 27.4 24.6 38.6 38.9 9.9 12.7 16.6 27.7 19.5 43.6 3.8 20.1 1.3 40.6-1.7 60.6-1.5 9.7-3 19.3-4.1 29.1-1 9.4-1.3 18.9-1.8 28.3-.7 10.7-.5 21.5.8 32.2 1.4 10.4 2.8 20.9 2.2 31.4-.1 1 1.5 1 1.6 0 .6-9.7-.6-19.4-1.9-29-1.4-10-1.8-20.1-1.4-30.2.5-10 .7-20 1.8-30 1.2-11 3-21.7 4.6-32.4z"/><linearGradient id="SVGID_3_" gradientUnits="userSpaceOnUse" x1="477.4207" y1="199.4895" x2="477.4207" y2="306.9446" gradientTransform="matrix(1 0 0 -1 0 520)"><stop offset="5.000000e-02" stop-color="#e55c69" stop-opacity=".5"/><stop offset="1" stop-color="#e55c69"/></linearGradient><path class="st3" d="M498 232.3c-1.1-5.2-3.2-10.7-7.2-14.4-4.6-4.2-11.4-4.7-13.8 1.8-1.3 3.7-1.4 7.9-1.4 11.8-.1 6.5.3 13 .6 19.5.3 6.3.5 12.6-.7 18.9-1.3 7-3.8 13.7-6 20.5-3.2 10.3-7.5 20.3-12.8 29.8-.2.4-.7.5-1.1.3-.4-.2-.5-.7-.3-1.1 7.3-12.5 11.9-26.5 16.1-40.3 2.4-7.9 3.5-16.2 3.2-24.5-.3-7.8-.9-15.6-.7-23.4.1-6 .1-17.1 8.1-18 10-1.1 15.6 10.8 17.3 18.8.4.9-1.1 1.3-1.3.3z"/><linearGradient id="SVGID_4_" gradientUnits="userSpaceOnUse" x1="404.6052" y1="-30.6686" x2="404.6052" y2="308.2987" gradientTransform="matrix(1 0 0 -1 0 520)"><stop offset="5.000000e-02" stop-color="#e55c69" stop-opacity="0"/><stop offset="1" stop-color="#e55c69"/></linearGradient><path class="st4" d="M476.4 221.5c.4-5.8-6.6-10.4-12-9.8-7.1.9-8.7 11-8.8 16.7s.5 11.2.5 16.8c-1.8-4.7-4.8-10-9.8-9.7-4.5.2-5.3 6.5-5.2 9.9.1 5 .8 9.9.7 14.9-.3 5.6-1.2 11.1-2.8 16.5-1.4 5.2-3.1 10.3-4.9 15.3-1.5 4.2-4.1 8.2-5.1 12.6-.1.4.1.9.5 1 .4.1.9-.1 1-.5l.2-.2c.3-.2.3-.6.1-.9.9-3.1 2.6-5.9 3.8-8.9 1.5-4 3-8.1 4.3-12.3 2.2-7.3 4.2-14.8 4.5-22.5.2-6.4-2-13.6-.1-19.8 1.4-4.5 5.2-4 8-.8 2.5 2.8 3.7 6.4 4.7 9.9-.5 12.4-2.5 24.6-5.9 36.5-1.8 5.8-4 12.4-7.7 17.1-.2.3-.1.8.2 1 .1 0 .1.1.2.1h.1c.2.1.5 0 .7-.1l.2-.2c.1-.1.2-.3.2-.5 5.4-7.1 7.8-17.1 9.7-25.6 2.2-9.4 3.5-18.9 3.9-28.5.4-9.1-1.8-18.8.5-27.7 1.1-4.5 3.6-9.2 8.9-8.4 3.9.6 8.4 3.8 8.1 8.1-.3.9 1.2.9 1.3 0zM288.8 539.7c-.2 1 1.3 1.5 1.5.5 2.4-10.3 6.7-19.9 10.9-29.5 4.2-9.9 7.5-20.2 9.8-30.7 2.1-9.2 4.6-18.4 6.2-27.7 1.7-9.6 2.9-19.4 4.2-29.1 2.7-20 6-40.4 15.3-58.6 7.2-14.4 17.9-26.9 31-36.4 14.8-10.6 30.4-21.1 47.9-26.5 1-.3.6-1.8-.4-1.5-18.7 5.8-36 17.2-51.6 29-13 9.9-22.9 22.9-29.8 37.6-8.3 17.4-11.4 36.6-14 55.5-1.5 10.7-2.7 21.5-4.7 32.1-1.8 9.8-4.4 19.5-6.7 29.3-2.4 9.8-5.7 19.4-9.8 28.6-3.7 9-7.6 17.9-9.8 27.4zm77.5 6.5c-.3 1-1.3 2.8-1 3.9.1.4.5.7 1 .6.1 0 .2-.1.3-.2.2-.2.5-.4.7-.6.3-.3.3-.7.1-1.1-.1-.1-.3-.2-.5-.3.4-1.5 1.4-3.6 1.6-4.5.4-1.4.8-2.8 1.1-4.3.7-2.9 1.4-5.7 2-8.6 1.3-5.8 2.4-11.6 3.5-17.5 2.3-12.1 4.6-24.2 7.3-36.3 4.3-19.7 6.6-42.2 21.5-57.3 13.4-13.5 32.8-20 50.2-26.4 7.5-2.7 16-5.5 21.5-11.5 5.9-6.4 9.4-15.2 13.9-22.7s8.8-14.9 13.6-22.1c1.8-2.6 3.6-5.2 5.2-7.9-1 .6-2 1.3-2.9 2l-.3.3c-.4.5-.8 1-1 1.4-1.7 2.5-3.5 5-5.1 7.6-6.1 9.8-12.1 19.7-17.6 29.8-2.4 4.4-4.9 9-8.7 12.3-3.6 3.1-8.3 5.1-12.7 6.9-8.7 3.6-17.7 6.5-26.4 10.2-15.8 6.7-31.3 15.5-39.6 31.1-4.7 8.8-7.3 18.5-9.4 28.2-2.2 10.1-4.3 20.1-6.4 30.2-2.2 10.8-4 21.6-6.2 32.4-1.2 5.8-2.4 11.6-3.9 17.3-.6 2.5-1.2 4.8-1.8 7.1zm149.8-283.5c1.7 10 4.5 20.9 1.3 30.8l1.7-.3c3.3-11.2 0-24.2-2.3-35.4-1.7-8.4-4.5-18.5-12.1-23.5-5-3.4-11.9-3.4-14.9 2.5-4.4 8.7-.4 20.5.8 29.5 1.5 11.8.9 24.9-2.4 36.3-.1.3 0 .6.2.8l1.3-.6c2.9-10.4 3.4-21.6 2.8-32.3-.6-9.4-4-18.8-2.7-28.2.5-4 2.5-8.3 7-8.8 3.6-.4 7 1.7 9.5 4.2 6.4 6.4 8.3 16.4 9.8 25z"/><linearGradient id="SVGID_5_" gradientUnits="userSpaceOnUse" x1="117.8493" y1="170.4895" x2="117.8493" y2="277.9443" gradientTransform="matrix(1 0 0 -1 0 520)"><stop offset="0" stop-color="#1b8aed" stop-opacity=".5"/><stop offset="1" stop-color="#1b8aed"/></linearGradient><path class="st5" d="M97.3 261.3c1.2-5.2 3.2-10.7 7.2-14.4 4.6-4.2 11.4-4.7 13.8 1.8 1.3 3.7 1.3 7.9 1.4 11.8.1 6.5-.3 13-.6 19.5-.3 6.3-.5 12.6.7 18.9 1.3 7 3.8 13.7 5.9 20.5 3.2 10.4 7.5 20.3 12.8 29.8.2.4.7.5 1.1.3.4-.2.5-.7.3-1.1-7.3-12.5-11.9-26.5-16.1-40.3-2.4-7.9-3.5-16.2-3.2-24.5.3-7.8.8-15.6.7-23.5-.1-6-.1-17.1-8.1-18C103 241 97.5 253 95.8 260.9c-.3 1 1.3 1.4 1.5.4z"/><linearGradient id="SVGID_6_" gradientUnits="userSpaceOnUse" x1="190.6517" y1="-59.6885" x2="190.6517" y2="279.2187" gradientTransform="matrix(1 0 0 -1 0 520)"><stop offset="0" stop-color="#1b8aed" stop-opacity="0"/><stop offset="1" stop-color="#1b8aed"/></linearGradient><path class="st6" d="M120.4 250.5c-.3-4.4 4.2-7.5 8.1-8.1 5.3-.8 7.8 4 8.9 8.4 2.2 8.9.1 18.6.5 27.7.5 9.6 1.8 19.2 3.9 28.5 1.9 8.5 4.3 18.5 9.6 25.6 0 .2.1.3.2.5l.2.2c.2.2.5.2.7.1h.1c.4-.1.6-.5.5-.9 0-.1 0-.1-.1-.2-3.8-4.8-6-11.4-7.7-17.1-3.4-11.9-5.4-24.2-5.9-36.5 1-3.5 2.2-7.1 4.7-9.9 2.8-3.2 6.7-3.7 8.1.8 1.9 6.2-.3 13.5-.1 19.8.2 7.7 2.2 15.2 4.5 22.5 1.3 4.1 2.7 8.2 4.3 12.3 1.1 3 2.9 5.8 3.8 8.9-.2.3-.1.7.1.9l.2.2c.1.4.6.6 1 .5.4-.1.6-.6.5-1-1-4.4-3.5-8.4-5.1-12.6-1.9-5-3.5-10.1-4.9-15.3-1.6-5.4-2.5-10.9-2.8-16.5-.2-5 .6-10 .7-14.9.1-3.4-.7-9.7-5.2-10-5-.2-8 5-9.8 9.7 0-5.6.6-11.2.5-16.8s-1.7-15.8-8.8-16.7c-5.4-.7-12.4 3.9-12 9.8-.1 1 1.3 1 1.3.1zm176.1 290.9c-4.1-9.2-7.4-18.8-9.8-28.7-2.3-9.7-4.9-19.4-6.7-29.3-2-10.6-3.2-21.4-4.7-32.1-2.6-18.9-5.7-38.1-14-55.5-7-14.7-16.9-27.7-29.8-37.6-15.5-11.8-32.8-23.2-51.6-29-1-.3-1.3 1.2-.4 1.5 17.5 5.4 33.1 15.9 47.9 26.5 13.1 9.4 23.8 21.9 31 36.4 9.3 18.2 12.6 38.6 15.3 58.6 1.3 9.7 2.5 19.4 4.2 29.1 1.6 9.3 4 18.5 6.2 27.7 2.3 10.5 5.6 20.7 9.8 30.6 4.2 9.6 8.5 19.3 10.9 29.5.2 1 1.7.5 1.5-.5-2-9.4-5.9-18.3-9.8-27.2zm-69.4 26.9c-1.5-5.7-2.7-11.5-3.9-17.3-2.2-10.8-4-21.6-6.2-32.4-2.1-10.1-4.2-20.2-6.4-30.2-2.1-9.7-4.7-19.4-9.4-28.2-8.4-15.6-23.9-24.3-39.7-31.1-8.7-3.7-17.6-6.6-26.4-10.2-4.4-1.8-9.1-3.8-12.7-6.9-3.8-3.3-6.3-8-8.7-12.3-5.5-10.1-11.6-20-17.7-29.8-1.6-2.6-3.4-5.1-5.1-7.6-.3-.4-.6-.9-1-1.4l-.3-.3c-.9-.7-1.9-1.4-2.9-2 1.6 2.7 3.4 5.3 5.2 7.9 4.8 7.2 9.2 14.7 13.6 22.1s8 16.2 13.9 22.7c5.5 6 14.1 8.8 21.5 11.5 17.4 6.4 36.8 12.9 50.2 26.4 14.9 15.1 17.2 37.5 21.5 57.3 2.6 12.1 5 24.1 7.3 36.3 1.1 5.8 2.2 11.7 3.5 17.5.6 2.9 1.3 5.8 2.1 8.6.4 1.4.7 2.8 1.1 4.3.2.9 1.2 3 1.6 4.5-.4.1-.7.4-.7.8 0 .2.1.4.3.5.3.2.5.4.7.6.3.3.8.3 1.1-.1.1-.1.1-.2.2-.3.3-1.2-.7-2.9-1-3.9-.5-2.4-1.1-4.7-1.7-7zM89 266.7c2.4-2.5 5.9-4.5 9.5-4.2 4.5.4 6.5 4.7 7 8.8 1.2 9.4-2.2 18.8-2.7 28.2-.7 10.7-.2 22 2.8 32.3l1.3.6c.2-.2.3-.5.3-.8-3.3-11.4-3.9-24.5-2.4-36.3 1.2-9 5.2-20.8.8-29.5-3-5.9-9.9-5.9-14.9-2.5-7.5 5.1-10.3 15.1-12.1 23.5-2.4 11.2-5.6 24.2-2.3 35.4l1.7.3c-3.2-10-.5-20.8 1.3-30.8 1.4-8.6 3.3-18.6 9.7-25z"/></g><g id="Blocks"><path class="st0" d="M321.6 154.1l.1.1-46.6-24-46.8 23.4.6.5 45.9 23.1z"/><path class="st7" d="M228.5 154l46.5-23.8 46.5 24.2"/><path class="st8" d="M321.6 154.2l-46.8 23-.4 57.7c2.9 1 5.8 2.1 8.7 3.4 7.2 3.2 14.1 7.1 20.6 11.5l17.3-8.5.6-87.1z"/><path class="st9" d="M228.3 153.6l-.3 45.5c7.1 7.8 13.2 16.3 21.1 23.2 7.5 6.6 16.3 9.3 25.4 12.6l.4-57.7-46.6-23.6z"/><path class="st10" d="M469 271.3c0 12.4-19 22.5-42.4 22.5s-42.4-10.1-42.4-22.5h-.1v57.1c0 3.3.9 6.6 2.4 9.6 6.7-2.4 13.5-4.3 20.4-5.7 13.6-2.9 28.2-1.2 41.5-5.5 7.5-2.4 14.1-6.5 20.6-10.9v-44.6z"/><path class="st11" d="M468.4 267.7zM434.2 291.4l-.5 38.4c3.3-.5 8.3-1 11.4-1.8 8.8-2.4 15.7-6.8 23.4-11.2v-41.3c-3.7 6.5-16.4 12.2-34.3 15.9z"/><ellipse class="st12" cx="426.6" cy="271.3" rx="42.4" ry="22.5"/><path class="st13" d="M177.6 254l-54.1 50.8 54 18.5z"/><path class="st0" d="M177.6 254v69.4l53.8-18.3z"/><path class="st14" d="M177.5 360.3v-37l-54-18.8v39c7.4 5 14.9 10.1 23.4 12.8 9.8 3.2 20.3 3.1 30.6 4z"/><path class="st15" d="M226.9 376.5l4.7-1.6v-70l-54 18.4v37.4c3.7.3 7.3.8 10.9 1.5 12.9 2.6 27.1 6.9 38.4 14.3z"/><path class="st16" d="M231.2 304.6l-53.5-50.1"/></g><g id="thumbs"><path class="st17" d="M235.2 264.8c-2.9-.9-6.1-5.5-8.8-7.7-3.7-3-7-6.6-9.7-10.6-5.3-7.8-10.1-16-14.4-24.4-5.2-9.8-9.1-15.5-19.4-21.5-8.2-4.8-18-11.1-15.1-21.6 6.6-23.7 42.2 4.1 50.7 11.6 10.8 9.5 18.4 21.8 29 31.1 9.9 8.7 22 10.6 34 16 14.7 6.6 29.7 16.6 40.7 28.1 5.4 5.6 5.5 10.9 6.5 18 .6 4.6-.4 13 3 16.4M141.5 399c-3.1 0-7.4-3.6-10.6-4.9-4.4-1.9-8.6-4.4-12.3-7.5-7.2-6.1-14.1-12.5-20.7-19.4-7.8-7.9-13.1-12.3-24.6-15.2-9.2-2.3-20.4-5.6-20.6-16.6-.3-24.6 41.7-7.9 51.9-3.1 13 6.1 23.7 15.8 36.5 21.7 12 5.6 24.1 4 37.1 5.8 16 2.2 33.2 7.6 46.9 15.6 6.7 3.9 8.4 9 11.3 15.5 1.9 4.2 3.3 12.6 7.5 14.9L141.5 399z"/><linearGradient id="SVGID_7_" gradientUnits="userSpaceOnUse" x1="148.4281" y1="113.4295" x2="148.4281" y2="198.526" gradientTransform="matrix(1 0 0 -1 0 520)"><stop offset="0" stop-color="#1b8aed" stop-opacity=".5"/><stop offset="1" stop-color="#1b8aed"/></linearGradient><path class="st18" d="M141.7 398.2c-2.7-.3-5-1.9-7.3-3.2-2.5-1.4-5.2-2.5-7.7-3.9-6.3-3.5-11.7-8.5-16.9-13.4-8-7.4-15-16.8-24.7-22.1-9-4.9-23.6-4.4-29.6-13.7-2.6-4.1-2.7-10.6.5-14.5 2.4-2.9 6.3-3.9 9.9-4.2 8-.6 16.2 1.6 23.8 4.1 7.6 2.4 14.8 5.5 21.7 9.4 11.1 6.4 21.1 15.3 33.3 19.6 11.9 4.2 25.1 2.9 37.4 4.9 7.7 1.3 15.3 3.2 22.7 5.8 7.5 2.6 16.1 5.7 22.4 10.6 5.2 4 7.9 11 9.9 17 1.4 4.3 2.7 9.2 6.6 11.9.8.6 1.6-.8.7-1.4-4.9-3.3-6-11.8-8.2-17-2.2-4.9-4.6-9.4-9.1-12.5-11.3-7.7-25.9-12.1-39.2-14.9-13.6-2.9-28.2-1.2-41.5-5.5-14.4-4.6-25.8-15.8-39.2-22.6-6.7-3.3-13.7-6-20.9-8-7.5-2.2-16.1-4.2-23.9-2.5-6.3 1.4-10.2 5.9-10.5 12.4-.3 10.9 9.8 15.2 18.8 17.6 6.9 1.9 13.2 4 18.9 8.4 6 4.7 11 10.7 16.5 16s11.3 10.8 17.8 14.9c2.9 1.8 6 3 9 4.6 2.6 1.5 5.1 3.3 8.2 3.7 1.2.2 1.6-1.3.6-1.5z"/><path class="st19" d="M54.1 339.1c2.5-1.8 4.8-3.8 7.3-5.5 1.9-1.3 4.2-1.9 6.5-1.6 3.4.7 6.6 2.2 9.4 4.3 2.2 1.5 4.5 3.6 4.7 6.4.3 3.5-2.6 6.7-4.9 9-.7.7.4 1.8 1.2 1 2.4-2.4 4.9-5.3 5.3-8.8.3-2.9-1.2-5.5-3.4-7.4-2.9-2.6-6.4-4.5-10.1-5.6-2.5-.9-5.3-.7-7.7.4-3.3 1.6-6.2 4.3-9.1 6.5-.9.6-.1 2 .8 1.3z"/><linearGradient id="SVGID_8_" gradientUnits="userSpaceOnUse" x1="249.6018" y1="219.0685" x2="249.6018" y2="351.1847" gradientTransform="matrix(1 0 0 -1 0 520)"><stop offset="0" stop-color="#f9ac17" stop-opacity=".5"/><stop offset="1" stop-color="#f9ac17"/></linearGradient><path class="st20" d="M235.6 264.1c-2.5-1.1-4.2-3.2-6.1-5.1-2-2.1-4.3-3.8-6.3-5.9-5-5.1-8.8-11.5-12.4-17.6-5.6-9.4-9.7-20.4-17.5-28.2-7.2-7.2-21.4-10.8-24.6-21.4-1.4-4.7.4-10.9 4.6-13.8 3.1-2.1 7.2-2 10.7-1.2 7.8 1.7 15.1 6.1 21.7 10.6 6.6 4.4 12.7 9.5 18.2 15.1 8.8 9.2 16 20.6 26.5 28.1 10.3 7.4 23.3 9.8 34.5 15.2 7.1 3.4 13.8 7.4 20.2 11.9 6.5 4.6 13.8 10 18.5 16.4 3.9 5.3 4.5 12.7 4.7 19.1.2 4.5 0 9.6 3 13.2.6.8 1.7-.4 1.1-1.1-3.8-4.5-2.4-13-3.2-18.6-.7-5.3-1.7-10.3-5.2-14.5-8.7-10.6-21.5-18.9-33.5-25.3-12.3-6.6-26.7-9.1-38.3-16.9-12.6-8.4-20.4-22.4-31.3-32.7-5.5-5.1-11.5-9.6-17.8-13.6-6.6-4.2-14.3-8.6-22.2-9.1-6.4-.5-11.5 2.8-13.5 9-3.4 10.4 5.2 17.4 13.1 22.2 6.1 3.7 11.6 7.5 15.8 13.4 4.4 6.2 7.6 13.3 11.4 20s7.8 13.6 12.9 19.3c2.3 2.5 5 4.5 7.3 7 2.1 2.1 4 4.6 6.9 5.8.9.6 1.7-.8.8-1.3z"/><path class="st21" d="M186.4 203.7l-.7-1.3c4.6-2.5 7.1-5.2 7.5-8.1s-1.1-5.9-4.6-9.4c-7-7.1-10-5.9-17.1-3.1-1.2.5-2.5 1-3.9 1.5l-.5-1.4c1.4-.5 2.7-1 3.9-1.5 7.3-2.9 11-4.3 18.7 3.4 3.8 3.9 5.5 7.4 5 10.7s-3.3 6.4-8.3 9.2z"/><path class="st17" d="M453.8 370c3 0 7.5-3.6 10.6-4.9 4.4-1.9 8.6-4.4 12.3-7.5 7.3-6 14.2-12.5 20.7-19.3 7.7-7.9 13.1-12.3 24.6-15.2 9.2-2.3 20.4-5.6 20.6-16.6.3-24.6-41.7-7.9-51.9-3.1-13 6.1-23.7 15.8-36.5 21.7-12 5.6-24.1 4-37.1 5.8-16 2.2-33.2 7.6-46.9 15.6-6.7 3.9-8.4 9-11.3 15.5-1.9 4.2-3.3 12.6-7.5 14.9l102.4-6.9z"/><linearGradient id="SVGID_9_" gradientUnits="userSpaceOnUse" x1="446.8156" y1="142.4296" x2="446.8156" y2="227.526" gradientTransform="matrix(1 0 0 -1 0 520)"><stop offset="5.000000e-02" stop-color="#e55c69" stop-opacity=".5"/><stop offset="1" stop-color="#e55c69"/></linearGradient><path class="st22" d="M453.6 369.2c2.7-.3 5-1.9 7.3-3.2 2.5-1.4 5.2-2.5 7.7-3.9 6.3-3.5 11.7-8.5 16.9-13.4 8-7.4 15-16.8 24.7-22.1 9-4.9 23.6-4.4 29.6-13.7 2.6-4.1 2.7-10.6-.5-14.5-2.4-2.9-6.3-3.9-9.9-4.2-8-.6-16.2 1.6-23.8 4.1-7.6 2.4-14.8 5.5-21.7 9.4-11 6.4-21.1 15.3-33.3 19.6-12 4.2-25.1 2.9-37.4 4.9-7.7 1.3-15.3 3.2-22.7 5.8-7.5 2.6-16.1 5.7-22.4 10.6-5.2 4-7.9 11-9.9 17-1.4 4.3-2.7 9.2-6.6 11.9-.8.6-1.6-.8-.7-1.4 4.9-3.3 6-11.8 8.2-17 2.2-4.9 4.5-9.4 9.1-12.5 11.3-7.7 25.9-12.1 39.2-14.9 13.6-2.9 28.2-1.2 41.5-5.5 14.4-4.6 25.8-15.8 39.2-22.6 6.7-3.3 13.7-6 20.9-8 7.5-2.2 16.1-4.2 23.9-2.5 6.3 1.4 10.2 5.9 10.4 12.4.3 10.9-9.8 15.2-18.8 17.6-6.9 1.9-13.2 4-18.9 8.4-6 4.7-11 10.7-16.5 16s-11.3 10.8-17.8 14.9c-2.9 1.8-6 3-9 4.6-2.6 1.5-5.1 3.3-8.2 3.7-1.2.2-1.5-1.4-.5-1.5z"/><path class="st23" d="M541.2 310.1c-2.5-1.8-4.8-3.8-7.3-5.5-1.9-1.3-4.2-1.9-6.5-1.6-3.4.7-6.6 2.2-9.4 4.3-2.2 1.5-4.5 3.6-4.7 6.4-.3 3.5 2.6 6.7 4.9 9 .7.7-.4 1.8-1.2 1-2.4-2.4-4.9-5.3-5.3-8.8-.3-2.9 1.2-5.5 3.3-7.4 2.9-2.6 6.3-4.5 10.1-5.6 2.5-.9 5.3-.7 7.7.4 3.3 1.6 6.2 4.3 9.1 6.5.9.6.1 2-.7 1.3z"/></g></svg>
