<svg xmlns="http://www.w3.org/2000/svg" viewBox="0 0 56 56"><g fill="none" stroke="currentColor" stroke-linecap="round" stroke-linejoin="round" stroke-width="2"><polygon points="14.74 29.03 4.02 24.74 4.02 10.81 14.74 15.1 14.74 29.03"/><polygon points="14.74 29.03 25.46 24.74 25.46 10.81 14.74 15.1 14.74 29.03"/><polyline points="4.02 10.81 14.74 6.52 25.46 10.81"/><polygon points="41.28 29.03 30.57 24.74 30.57 10.81 41.28 15.1 41.28 29.03"/><polygon points="41.28 29.03 52 24.74 52 10.81 41.28 15.1 41.28 29.03"/><polyline points="30.57 10.81 41.28 6.52 52 10.81"/><polygon points="28.02 51.48 17.31 47.2 17.31 33.26 28.02 37.55 28.02 51.48"/><polygon points="28.02 51.48 38.74 47.2 38.74 33.26 28.02 37.55 28.02 51.48"/><polyline points="17.31 33.26 28.02 28.98 38.74 33.26"/></g></svg>