<svg viewBox="0 0 201.55 56" xmlns="http://www.w3.org/2000/svg" aria-hidden="true"><g fill="none" stroke="currentColor" stroke-linecap="round" stroke-linejoin="round" stroke-width="2"><path d="m14.74 29.03-10.72-4.29v-13.93l10.72 4.29z"/><path d="m14.74 29.03 10.72-4.29v-13.93l-10.72 4.29z"/><path d="m4.02 10.81 10.72-4.29 10.72 4.29"/><path d="m41.28 29.03-10.71-4.29v-13.93l10.71 4.29z"/><path d="m41.28 29.03 10.72-4.29v-13.93l-10.72 4.29z"/><path d="m30.57 10.81 10.71-4.29 10.72 4.29"/><path d="m28.02 51.48-10.71-4.28v-13.94l10.71 4.29z"/><path d="m28.02 51.48 10.72-4.28v-13.94l-10.72 4.29z"/><path d="m17.31 33.26 10.71-4.28 10.72 4.28"/></g><g fill="currentColor"><path d="m67.62 14.49a2.77 2.77 0 0 0 -2.38 1.15 5.4 5.4 0 0 0 -.84 3.22q0 4.31 3.22 4.3a9.93 9.93 0 0 0 3.28-.68v2.29a9.06 9.06 0 0 1 -3.53.66 5.4 5.4 0 0 1 -4.29-1.7 7.21 7.21 0 0 1 -1.49-4.88 8.11 8.11 0 0 1 .73-3.52 5.35 5.35 0 0 1 2.1-2.33 6.25 6.25 0 0 1 3.2-.8 8.64 8.64 0 0 1 3.76.9l-.87 2.22a14.81 14.81 0 0 0 -1.45-.6 4.37 4.37 0 0 0 -1.44-.23z" /><path d="m82.35 20.32a5.33 5.33 0 0 1 -1.26 3.76 4.61 4.61 0 0 1 -3.53 1.35 5 5 0 0 1 -2.49-.62 4.09 4.09 0 0 1 -1.66-1.81 5.94 5.94 0 0 1 -.58-2.71 5.28 5.28 0 0 1 1.25-3.74 4.64 4.64 0 0 1 3.54-1.34 5 5 0 0 1 2.49.62 4.09 4.09 0 0 1 1.66 1.76 5.9 5.9 0 0 1 .58 2.73zm-6.79 0a4.14 4.14 0 0 0 .44 2.21 1.71 1.71 0 0 0 1.56.75 1.68 1.68 0 0 0 1.54-.75 4.2 4.2 0 0 0 .47-2.21 4.14 4.14 0 0 0 -.47-2.19 2 2 0 0 0 -3.11 0 4.1 4.1 0 0 0 -.43 2.19z"/><path d="m93.37 25.25h-2.68v-5.74a2.83 2.83 0 0 0 -.36-1.59 1.24 1.24 0 0 0 -1.12-.53 1.64 1.64 0 0 0 -1.5.75 5 5 0 0 0 -.46 2.49v4.62h-2.68v-9.82h2.05l.38 1.25h.15a2.73 2.73 0 0 1 1.14-1.06 3.77 3.77 0 0 1 1.71-.38 3.09 3.09 0 0 1 3 1.44h.24a2.66 2.66 0 0 1 1.16-1.06 3.93 3.93 0 0 1 1.74-.38 3.46 3.46 0 0 1 2.53.86 3.77 3.77 0 0 1 .85 2.75v6.4h-2.72v-5.74a2.93 2.93 0 0 0 -.35-1.59 1.24 1.24 0 0 0 -1.12-.53 1.68 1.68 0 0 0 -1.48.7 4 4 0 0 0 -.48 2.23z"/><path d="m111 25.25h-2.68v-5.74a2.83 2.83 0 0 0 -.36-1.59 1.23 1.23 0 0 0 -1.12-.53 1.63 1.63 0 0 0 -1.49.75 5 5 0 0 0 -.47 2.49v4.62h-2.68v-9.82h2.05l.36 1.25h.15a2.79 2.79 0 0 1 1.14-1.06 3.79 3.79 0 0 1 1.72-.38 3.1 3.1 0 0 1 3 1.44h.23a2.69 2.69 0 0 1 1.17-1.06 3.89 3.89 0 0 1 1.73-.38 3.43 3.43 0 0 1 2.53.86 3.78 3.78 0 0 1 .86 2.75v6.4h-2.69v-5.74a2.83 2.83 0 0 0 -.36-1.59 1.24 1.24 0 0 0 -1.12-.53 1.65 1.65 0 0 0 -1.47.7 3.94 3.94 0 0 0 -.49 2.23z"/><path d="m126.88 25.25-.36-1.25h-.14a2.85 2.85 0 0 1 -1.22 1.05 4.18 4.18 0 0 1 -1.81.38 3.44 3.44 0 0 1 -2.61-.93 3.76 3.76 0 0 1 -.87-2.67v-6.4h2.68v5.74a2.77 2.77 0 0 0 .37 1.59 1.38 1.38 0 0 0 1.21.53 1.8 1.8 0 0 0 1.62-.75 4.6 4.6 0 0 0 .5-2.49v-4.62h2.69v9.82z"/><path d="m140.82 25.25h-2.68v-5.74a2.74 2.74 0 0 0 -.38-1.59 1.35 1.35 0 0 0 -1.2-.53 1.81 1.81 0 0 0 -1.63.75 4.69 4.69 0 0 0 -.5 2.49v4.62h-2.68v-9.82h2.05l.36 1.25h.15a2.79 2.79 0 0 1 1.23-1.07 4.12 4.12 0 0 1 1.79-.37 3.43 3.43 0 0 1 2.6.93 3.74 3.74 0 0 1 .89 2.68z"/><path d="m143.46 12.89c0-.88.49-1.31 1.46-1.31s1.46.43 1.46 1.31a1.29 1.29 0 0 1 -.36 1 1.56 1.56 0 0 1 -1.1.34c-.92-.03-1.46-.46-1.46-1.34zm2.8 12.36h-2.68v-9.82h2.68z"/><path d="m153.21 23.29a6 6 0 0 0 1.69-.3v2a6 6 0 0 1 -2.46.45 3 3 0 0 1 -2.34-.81 3.56 3.56 0 0 1 -.74-2.44v-4.75h-1.28v-1.13l1.47-.9.78-2.08h1.67v2.1h2.75v2h-2.75v4.74a1 1 0 0 0 .32.84 1.29 1.29 0 0 0 .89.28z"/><path d="m155.48 15.43h2.93l1.86 5.57a7.23 7.23 0 0 1 .32 1.71h.06a7.87 7.87 0 0 1 .35-1.71l1.82-5.52h2.88l-4.16 11.08a4.79 4.79 0 0 1 -1.63 2.3 4.12 4.12 0 0 1 -2.47.77 6.25 6.25 0 0 1 -1.37-.15v-2.18a4.48 4.48 0 0 0 1.06.11 1.89 1.89 0 0 0 1.24-.43 2.8 2.8 0 0 0 .83-1.31l.16-.49z"/><path d="m166.25 21.53v-2.2h4.75v2.2z"/><path d="m175.6 25.25h-2.68v-13.67h2.68z"/><path d="m182.86 25.43a5.07 5.07 0 0 1 -3.71-1.31 5 5 0 0 1 -1.34-3.71 5.42 5.42 0 0 1 1.24-3.82 4.39 4.39 0 0 1 3.41-1.35 4.32 4.32 0 0 1 3.24 1.19 4.46 4.46 0 0 1 1.16 3.28v1.29h-6.33a2.59 2.59 0 0 0 .67 1.78 2.4 2.4 0 0 0 1.78.64 7.59 7.59 0 0 0 1.68-.18 8 8 0 0 0 1.65-.59v2.07a6.36 6.36 0 0 1 -1.5.53 9.88 9.88 0 0 1 -1.95.18zm-.38-8.28a1.7 1.7 0 0 0 -1.34.54 2.53 2.53 0 0 0 -.55 1.53h3.76a2.19 2.19 0 0 0 -.52-1.53 1.74 1.74 0 0 0 -1.35-.54z"/><path d="m192.16 25.43a3.17 3.17 0 0 1 -2.72-1.35 6.14 6.14 0 0 1 -1-3.72 6.21 6.21 0 0 1 1-3.77 3.28 3.28 0 0 1 2.78-1.35 3.21 3.21 0 0 1 2.83 1.44h.08a11.32 11.32 0 0 1 -.2-2v-3.1h2.69v13.67h-2.06l-.5-1.25h-.12a3.06 3.06 0 0 1 -2.78 1.43zm.94-2.14a1.83 1.83 0 0 0 1.5-.59 3.5 3.5 0 0 0 .53-2v-.29a4 4 0 0 0 -.49-2.26 1.82 1.82 0 0 0 -1.59-.69 1.58 1.58 0 0 0 -1.39.76 4.09 4.09 0 0 0 -.5 2.21 3.9 3.9 0 0 0 .5 2.18 1.65 1.65 0 0 0 1.44.68z"/><path d="m70.49 37.29-.32 1.46h-.18a4.71 4.71 0 0 0 -3.08-1.12 3.49 3.49 0 0 0 -2.91 1.37 6.16 6.16 0 0 0 -1 3.83 6.3 6.3 0 0 0 1 3.88 3.39 3.39 0 0 0 2.87 1.29 4.91 4.91 0 0 0 1.75-.32 5.44 5.44 0 0 0 1.59-.9l.2.1-.14 1.52a7.25 7.25 0 0 1 -3.54 1 4.93 4.93 0 0 1 -4-1.67 7.13 7.13 0 0 1 -1.42-4.73 7.28 7.28 0 0 1 1.48-4.9 5.24 5.24 0 0 1 4.21-1.77 6.31 6.31 0 0 1 3.49.96z"/><path d="m78.46 41.14a5.16 5.16 0 0 1 1 3.41 5.36 5.36 0 0 1 -1.08 3.59 3.81 3.81 0 0 1 -3.08 1.27 3.58 3.58 0 0 1 -2.91-1.21 5.07 5.07 0 0 1 -1-3.41 5.35 5.35 0 0 1 1.09-3.59 3.85 3.85 0 0 1 3.09-1.27 3.61 3.61 0 0 1 2.89 1.21zm-4.91.77a4.11 4.11 0 0 0 -.66 2.52 5.12 5.12 0 0 0 .65 2.88 2.13 2.13 0 0 0 1.89 1 2.3 2.3 0 0 0 1.92-.84 4 4 0 0 0 .65-2.56 5.29 5.29 0 0 0 -.64-2.91 2.15 2.15 0 0 0 -1.89-1 2.28 2.28 0 0 0 -1.92.91z"/><path d="m85.93 43.39v1l-4.82.7-.11-.16v-1l4.84-.68z"/><path d="m95 45.23v2.06a1.12 1.12 0 0 0 .14.59.48.48 0 0 0 .44.17 2.17 2.17 0 0 0 .68-.12l.16.14-.16.9a2.57 2.57 0 0 1 -1.12.4 1.48 1.48 0 0 1 -1-.42 1.59 1.59 0 0 1 -.43-1h-.14a8.76 8.76 0 0 1 -1.08.83 5.94 5.94 0 0 1 -1.1.55 3.81 3.81 0 0 1 -3-1.21 5 5 0 0 1 -1.06-3.45 4.92 4.92 0 0 1 1.18-3.51 4.26 4.26 0 0 1 3.26-1.25 7.65 7.65 0 0 1 1.76.2v-4.78l1.58-.14zm-5.38-3.31a3.74 3.74 0 0 0 -.74 2.51 4.44 4.44 0 0 0 .67 2.64 2.13 2.13 0 0 0 1.85.94 2.3 2.3 0 0 0 1.09-.28 4.08 4.08 0 0 0 1.11-.94v-1.44l-.06-3.8a4.69 4.69 0 0 0 -1.94-.5 2.5 2.5 0 0 0 -2.01.87z"/><path d="m99.19 44.61a3.87 3.87 0 0 0 .76 2.58 2.65 2.65 0 0 0 2.16.9 4.32 4.32 0 0 0 1.4-.23 4.68 4.68 0 0 0 1.28-.65l.16.12-.24 1.36a6.3 6.3 0 0 1 -2.8.68 3.89 3.89 0 0 1 -3.08-1.25 4.92 4.92 0 0 1 -1.12-3.43 5.18 5.18 0 0 1 1.12-3.5 3.79 3.79 0 0 1 3-1.3 3.33 3.33 0 0 1 2.48.91 3.52 3.52 0 0 1 .88 2.53 6.59 6.59 0 0 1 -.08 1l-.2.2zm1-2.91a3.3 3.3 0 0 0 -.89 1.83l4.42-.08v-.28a2.32 2.32 0 0 0 -.49-1.57 1.82 1.82 0 0 0 -1.41-.55 2.3 2.3 0 0 0 -1.64.65z"/><path d="m112.39 40.39-.22 1.3-.24.06a3.52 3.52 0 0 0 -1.92-.66 1.58 1.58 0 0 0 -1.1.38 1.21 1.21 0 0 0 -.42.92 1 1 0 0 0 .43.87 7.26 7.26 0 0 0 1.33.75 13.66 13.66 0 0 1 1.25.65 3 3 0 0 1 .81.77 2.05 2.05 0 0 1 .34 1.18 2.65 2.65 0 0 1 -.38 1.38 2.8 2.8 0 0 1 -1.12 1 3.75 3.75 0 0 1 -1.76.39 5.63 5.63 0 0 1 -2.66-.66l.2-1.36.18-.12a4.11 4.11 0 0 0 1.21.74 3.16 3.16 0 0 0 1.23.26 1.72 1.72 0 0 0 1.2-.41 1.27 1.27 0 0 0 .46-1 1.06 1.06 0 0 0 -.43-.87 7.62 7.62 0 0 0 -1.33-.75 11.82 11.82 0 0 1 -1.26-.65 2.47 2.47 0 0 1 -.82-.79 2.11 2.11 0 0 1 -.34-1.24 2.41 2.41 0 0 1 .85-1.9 3.39 3.39 0 0 1 2.31-.74 5.76 5.76 0 0 1 2.2.5z"/><path d="m116.57 36.23a.89.89 0 0 1 .24.66 1 1 0 0 1 -.25.7.9.9 0 0 1 -.69.26.85.85 0 0 1 -.65-.24.91.91 0 0 1 -.23-.68.94.94 0 0 1 .25-.68.9.9 0 0 1 .69-.26.88.88 0 0 1 .64.24zm-1.38 9.14-.06-5.18 1.54-.14v5.18 4h-1.56z"/><path d="m126.19 41.29v.08a3.19 3.19 0 0 1 .44 1.7 3 3 0 0 1 -1 2.32 3.81 3.81 0 0 1 -2.63.86 4.48 4.48 0 0 1 -1.24-.16 3 3 0 0 0 -.46.42.6.6 0 0 0 -.12.36c0 .28.17.48.52.59a10.68 10.68 0 0 0 1.7.35 17.66 17.66 0 0 1 1.9.36 3.44 3.44 0 0 1 1.28.65 1.54 1.54 0 0 1 .54 1.25 2.37 2.37 0 0 1 -.57 1.54 3.7 3.7 0 0 1 -1.56 1.1 5.7 5.7 0 0 1 -2.17.4 3.79 3.79 0 0 1 -2.49-.73 2.29 2.29 0 0 1 -.89-1.89 4.44 4.44 0 0 1 1.76-1.74v-.1a2.65 2.65 0 0 1 -1.11-.59 1.31 1.31 0 0 1 -.39-1 3.83 3.83 0 0 1 1.22-1.22v-.08a2.52 2.52 0 0 1 -1-1 3.26 3.26 0 0 1 -.33-1.51 3 3 0 0 1 1-2.35 3.81 3.81 0 0 1 2.59-.85 4.13 4.13 0 0 1 1.8.36c.92-.17 1.88-.4 2.9-.68l.16.12v1.08c-.43.07-1.04.2-1.85.36zm-1.19 8.16a11 11 0 0 0 -2-.46l-.64-.1a5.41 5.41 0 0 0 -1.15.88 1.3 1.3 0 0 0 -.39.88 1.12 1.12 0 0 0 .57 1 2.79 2.79 0 0 0 1.61.35 3.65 3.65 0 0 0 1.94-.47 1.34 1.34 0 0 0 .78-1.15.94.94 0 0 0 -.72-.93zm-.42-4.84a2.15 2.15 0 0 0 .55-1.56 2 2 0 0 0 -.52-1.48 2.07 2.07 0 0 0 -1.5-.52 2.14 2.14 0 0 0 -1.56.54 2 2 0 0 0 1.48 3.58 2.06 2.06 0 0 0 1.59-.56z"/><path d="m135.45 43a1.88 1.88 0 0 0 -.38-1.28 1.51 1.51 0 0 0 -1.18-.46 4.14 4.14 0 0 0 -2.72 1.42v2.52l.08 4h-1.58l.1-3.88-.08-5.18 1.5-.14v1.34h.12a6.08 6.08 0 0 1 2.54-1.34 3.39 3.39 0 0 1 2.29.7 2.52 2.52 0 0 1 .77 2v2.6l.08 4h-1.6z"/><path d="m145.09 45.25.06 4h-1.58l.06-3.86-.06-9h1.6zm2-2.8a76.19 76.19 0 0 0 5.56 6.46v.2a11 11 0 0 1 -1.5.32l-.2-.1q-3.16-3.57-5.52-6.8v-.12l4.28-4.86.8-1.12h1.8z"/><path d="m155.71 36.23a.89.89 0 0 1 .24.66 1 1 0 0 1 -.25.7.9.9 0 0 1 -.69.26.85.85 0 0 1 -.65-.24.91.91 0 0 1 -.23-.68.94.94 0 0 1 .25-.68.9.9 0 0 1 .69-.26.88.88 0 0 1 .64.24zm-1.38 9.14-.06-5.18 1.54-.14v5.18 4h-1.56z"/><path d="m163.39 47.63.18.12-.16 1a5.85 5.85 0 0 1 -2 .58 2.6 2.6 0 0 1 -1.64-.84 2.76 2.76 0 0 1 -.5-1.8l.06-1.42v-4.14h-1.26l-.08-.12.1-.94h1.22v-1.44l1.38-.6.16.14v1.94h2.72l.08.12-.1.94h-2.7l-.1 5.42a1.53 1.53 0 0 0 .28 1.12 1.26 1.26 0 0 0 1 .32 3.15 3.15 0 0 0 1.36-.4z"/></g></svg>
