<svg width="37" height="44" viewBox="0 0 37 44" fill="none" xmlns="http://www.w3.org/2000/svg"><path fill-rule="evenodd" clip-rule="evenodd" d="M5.41886 5.3381C8.88825 1.92017 13.5937 0 18.5002 0C23.4066 0 28.1121 1.92017 31.5815 5.3381C35.0509 8.75602 37 13.3917 37 18.2254C37 23.0591 35.0509 27.6948 31.5815 31.1127L18.5002 44L5.41886 31.1127C3.70088 29.4204 2.3381 27.4112 1.40832 25.2C0.47855 22.9888 0 20.6188 0 18.2254C0 15.832 0.47855 13.462 1.40832 11.2508C2.3381 9.03955 3.70088 7.03042 5.41886 5.3381ZM18.5002 23.4324C19.902 23.4324 21.2463 22.8838 22.2375 21.9073C23.2287 20.9308 23.7856 19.6064 23.7856 18.2254C23.7856 16.8444 23.2287 15.52 22.2375 14.5435C21.2463 13.567 19.902 13.0184 18.5002 13.0184C17.0984 13.0184 15.7541 13.567 14.7629 14.5435C13.7717 15.52 13.2148 16.8444 13.2148 18.2254C13.2148 19.6064 13.7717 20.9308 14.7629 21.9073C15.7541 22.8838 17.0984 23.4324 18.5002 23.4324Z" fill="currentColor"/></svg>
