<svg xmlns="http://www.w3.org/2000/svg" viewBox="0 0 60 58" width="30" height="29"><g><polygon class="face" points="1.5 14.5 16.5 1.5 57.5 1.5 57.5 43.5 43.5 55.5 1.5 55.5 1.5 14.5"/><path class="stroke" d="M18.83,48a12.5,12.5,0,1,1,12.5-12.5A12.52,12.52,0,0,1,18.83,48Zm0-22a9.5,9.5,0,1,0,9.5,9.5A9.52,9.52,0,0,0,18.83,26Z"/><path class="stroke" d="M26.17,48a12.5,12.5,0,1,1,12.5-12.5A12.51,12.51,0,0,1,26.17,48Zm0-22a9.5,9.5,0,1,0,9.5,9.5A9.51,9.51,0,0,0,26.17,26Z"/><path class="stroke" d="M43.5,58H1.5A1.5,1.5,0,0,1,0,56.5v-42A1.5,1.5,0,0,1,1.5,13h42A1.5,1.5,0,0,1,45,14.5v42A1.5,1.5,0,0,1,43.5,58ZM3,55H42V16H3Z"/><path class="stroke" d="M43.5,58a1.37,1.37,0,0,1-.62-.14A1.48,1.48,0,0,1,42,56.5v-42a1.49,1.49,0,0,1,.52-1.13l15-13a1.47,1.47,0,0,1,1.6-.23A1.48,1.48,0,0,1,60,1.5v42a1.48,1.48,0,0,1-.52,1.13l-15,13A1.46,1.46,0,0,1,43.5,58ZM45,15.19v38l12-10.4v-38ZM58.5,43.5h0Z"/><path class="stroke" d="M1.5,16a1.45,1.45,0,0,1-1.13-.52,1.48,1.48,0,0,1,.15-2.11l15-13a1.48,1.48,0,0,1,1-.37h42a1.5,1.5,0,0,1,0,3H17.06L2.48,15.63A1.46,1.46,0,0,1,1.5,16Z"/></g></svg>
