<svg xmlns="http://www.w3.org/2000/svg" viewBox="0 0 47.75 68" width="23.875" height="34"><g><polygon class="face" points="0.88 20.5 20.88 1.5 45.88 13.5 45.88 59.5 39.88 66.5 1.88 66.5 0.88 20.5"/><path class="stroke" d="M39.86,68H1.5A1.5,1.5,0,0,1,0,66.5V20.26a1.5,1.5,0,0,1,1.5-1.5H39.86a1.5,1.5,0,0,1,1.5,1.5V66.5A1.5,1.5,0,0,1,39.86,68ZM3,65H38.36V21.76H3Z"/><path class="stroke" d="M39.86,68a1.47,1.47,0,0,1-.54-.1,1.5,1.5,0,0,1-1-1.4V20.26a1.52,1.52,0,0,1,.39-1l6.39-7a1.5,1.5,0,0,1,2.61,1V59.46a1.47,1.47,0,0,1-.39,1l-6.39,7A1.5,1.5,0,0,1,39.86,68Zm1.5-47.16V62.62l3.39-3.74V17.1Zm4.89,38.62h0Z"/><path class="stroke" d="M1.5,21.76a1.5,1.5,0,0,1-1-2.6L20.73.4a1.5,1.5,0,0,1,2.08,0L40.65,18.29a1.5,1.5,0,1,1-2.12,2.12L21.71,3.58,2.52,21.36A1.48,1.48,0,0,1,1.5,21.76Z"/><path class="stroke" d="M46.25,14.72a1.5,1.5,0,0,1-.64-.15L21.1,2.85A1.5,1.5,0,1,1,22.39.15L46.9,11.87a1.5,1.5,0,0,1-.65,2.85Z"/><path class="stroke" d="M17.75,54.45a6.39,6.39,0,1,1,6.38-6.38A6.39,6.39,0,0,1,17.75,54.45Zm0-9.77a3.39,3.39,0,1,0,3.38,3.39A3.39,3.39,0,0,0,17.75,44.68Z"/><path class="stroke" d="M26.54,58.36H9a1.5,1.5,0,0,1-1.5-1.5V29.5A1.5,1.5,0,0,1,9,28H32.41a1.5,1.5,0,0,1,1.5,1.5V51a1.5,1.5,0,0,1-3,0V31H10.45V55.36H26.54a1.5,1.5,0,1,1,0,3Z"/><path class="stroke" d="M28.5,40.77H21.73a1.5,1.5,0,0,1-1.3-2.25l3.38-5.86a1.52,1.52,0,0,1,1.3-.75,1.49,1.49,0,0,1,1.3.75l3.39,5.86a1.54,1.54,0,0,1,0,1.5A1.5,1.5,0,0,1,28.5,40.77Zm-4.17-3H25.9l-.79-1.36Z"/><path class="stroke" d="M26.54,58.36a1.6,1.6,0,0,1-.57-.11A1.5,1.5,0,0,1,25,56.86V51a1.5,1.5,0,0,1,1.5-1.5h5.87a1.49,1.49,0,0,1,1.38.92,1.51,1.51,0,0,1-.32,1.64L27.6,57.92A1.47,1.47,0,0,1,26.54,58.36ZM28,52.5v.74l.75-.74Z"/></g></svg>
