<svg xmlns="http://www.w3.org/2000/svg" viewBox="0 0 63.84 60" width="31.92" height="30"><g><polygon class="face" points="1.34 58.5 28.34 2.5 62.34 42.5 55.34 58.5 1.34 58.5"/><path class="stroke" d="M55.8,60H1.5a1.51,1.51,0,0,1-1.27-.7,1.48,1.48,0,0,1-.08-1.44L27.3.86a1.49,1.49,0,0,1,2.7,0l27.15,57A1.49,1.49,0,0,1,55.8,60ZM3.88,57H53.42L28.65,5Z"/><path class="stroke" d="M55.8,60a1.35,1.35,0,0,1-.55-.11A1.49,1.49,0,0,1,54.41,58l6.2-15.62L27.5,2.46A1.5,1.5,0,1,1,29.8.54L63.49,41.1a1.5,1.5,0,0,1,.24,1.51L57.19,59.05A1.49,1.49,0,0,1,55.8,60Z"/><path class="stroke" d="M31.1,42.46H22.87a5.61,5.61,0,1,1,0-11.22H27a1.5,1.5,0,0,1,0,3H22.87a2.61,2.61,0,1,0,0,5.22H31.1a1.5,1.5,0,0,1,0,3Z"/><path class="stroke" d="M31.1,50.68H22.87a1.5,1.5,0,1,1,0-3H31.1a2.61,2.61,0,0,0,0-5.22H22.87a1.5,1.5,0,1,1,0-3H31.1a5.61,5.61,0,0,1,0,11.22Z"/><path class="stroke" d="M34.93,37a4.24,4.24,0,1,1,4.24-4.24A4.24,4.24,0,0,1,34.93,37Zm0-5.48a1.24,1.24,0,1,0,1.24,1.24A1.25,1.25,0,0,0,34.93,31.5Z"/><path class="stroke" d="M20.13,53.42a4.24,4.24,0,1,1,4.24-4.24A4.25,4.25,0,0,1,20.13,53.42Zm0-5.48a1.24,1.24,0,1,0,0,2.48,1.24,1.24,0,1,0,0-2.48Z"/><path class="stroke" d="M25.73,37a1.53,1.53,0,0,1-1.06-.44,1.51,1.51,0,0,1,0-2.12l1.56-1.56L24.67,31.3a1.5,1.5,0,1,1,2.12-2.13l2.63,2.63a1.51,1.51,0,0,1,0,2.12l-2.63,2.62A1.49,1.49,0,0,1,25.73,37Z"/></g></svg>
