<svg viewBox="0 0 20 20" xmlns="http://www.w3.org/2000/svg"><g fill="currentColor"><path d="m7 12.5a1.5 1.5 0 1 0 1.5 1.5 1.5 1.5 0 0 0 -1.5-1.5zm0 2a.5.5 0 1 1 .5-.5.5.5 0 0 1 -.5.5z"/><path d="m4 14.5a1.5 1.5 0 1 0 1.5 1.5 1.5 1.5 0 0 0 -1.5-1.5zm0 2a.5.5 0 1 1 .5-.5.5.5 0 0 1 -.5.5z"/><path d="m16.21 6a2.72 2.72 0 0 0 -3-2.27 5 5 0 0 0 -9.21 2.27 2.75 2.75 0 0 0 .5 5.5h11.25a2.75 2.75 0 0 0 .46-5.5zm-.46 4.46h-11.25a1.75 1.75 0 0 1 0-3.46.5.5 0 0 0 .5-.5 4 4 0 0 1 7.48-1.92.51.51 0 0 0 .57.24 1.6 1.6 0 0 1 .45-.07 1.76 1.76 0 0 1 1.75 1.75.5.5 0 0 0 .5.5 1.75 1.75 0 0 1 0 3.5z"/></g></svg>
