<svg width="73" height="68" viewBox="0 0 73 68" xmlns="http://www.w3.org/2000/svg" aria-hidden="true"><path d="M72.2878 44.4262L63.2675 35.4222C62.8165 34.9699 62.2801 34.6113 61.6893 34.3671C61.0986 34.123 60.4651 33.9982 59.8257 34H38.9334V29.1429H60.8341C62.1248 29.1429 63.3627 28.6311 64.2754 27.7202C65.1881 26.8093 65.7009 25.5739 65.7009 24.2857V9.71429C65.7009 8.42609 65.1881 7.19066 64.2754 6.27977C63.3627 5.36888 62.1248 4.85714 60.8341 4.85714H38.9334V2.42857C38.9334 1.78447 38.677 1.16676 38.2207 0.711312C37.7643 0.255866 37.1454 0 36.5 0C35.8546 0 35.2357 0.255866 34.7793 0.711312C34.323 1.16676 34.0666 1.78447 34.0666 2.42857V4.85714H13.1743C12.5349 4.85538 11.9014 4.98016 11.3107 5.22429C10.7199 5.46841 10.1835 5.82702 9.73251 6.27938L0.712165 15.2833C0.256157 15.7387 0 16.3562 0 17C0 17.6438 0.256157 18.2613 0.712165 18.7167L9.73251 27.7206C10.1835 28.173 10.7199 28.5316 11.3107 28.7757C11.9014 29.0198 12.5349 29.1446 13.1743 29.1429H34.0666V34H12.1659C10.8752 34 9.63726 34.5117 8.72456 35.4226C7.81185 36.3335 7.2991 37.569 7.2991 38.8571V53.4286C7.2991 54.7168 7.81185 55.9522 8.72456 56.8631C9.63726 57.774 10.8752 58.2857 12.1659 58.2857H34.0666V65.5714C34.0666 66.2155 34.323 66.8332 34.7793 67.2887C35.2357 67.7441 35.8546 68 36.5 68C37.1454 68 37.7643 67.7441 38.2207 67.2887C38.677 66.8332 38.9334 66.2155 38.9334 65.5714V58.2857H59.8257C60.4651 58.2875 61.0986 58.1627 61.6893 57.9186C62.2801 57.6744 62.8165 57.3158 63.2675 56.8635L72.2878 47.8596C72.7438 47.4042 73 46.7867 73 46.1429C73 45.499 72.7438 44.8816 72.2878 44.4262Z" fill="currentColor"/></svg>
