<svg width="65" height="65" viewBox="0 0 65 65" xmlns="http://www.w3.org/2000/svg" aria-hidden="true"><path d="M65 19.2969C65 21.0742 64.6086 22.7246 63.8257 24.248C63.0428 25.7715 61.9743 27.0622 60.6201 28.1201C60.8317 28.9665 60.9375 29.7493 60.9375 30.4688C60.9375 33.2617 59.943 35.6527 57.9541 37.6416C55.9652 39.6305 53.5742 40.625 50.7812 40.625C49.3001 40.625 47.8402 40.2865 46.4014 39.6094C45.3011 41.1751 43.8835 42.4129 42.1484 43.3228C40.4134 44.2326 38.5514 44.6875 36.5625 44.6875C34.3197 44.6875 32.2567 44.1162 30.3735 42.9736C28.4904 41.8311 27.0199 40.2865 25.9619 38.3398C24.3538 39.8633 22.4707 40.625 20.3125 40.625C18.0697 40.625 16.1548 39.8315 14.5679 38.2446C12.981 36.6577 12.1875 34.7428 12.1875 32.5C8.80208 32.5 5.92448 31.3151 3.55469 28.9453C1.1849 26.5755 0 23.6979 0 20.3125C0 16.9271 1.1849 14.0495 3.55469 11.6797C5.92448 9.3099 8.80208 8.125 12.1875 8.125C13.9225 8.125 15.5941 8.4847 17.2021 9.2041C18.2178 6.49577 19.9316 4.28467 22.3438 2.5708C24.7559 0.856934 27.4642 0 30.4688 0C32.5846 0 34.5736 0.454915 36.4355 1.36475C38.2975 2.27458 39.9056 3.51237 41.2598 5.07812C41.8522 3.55469 42.8255 2.32747 44.1797 1.39648C45.5339 0.465495 47.0573 0 48.75 0C50.9928 0 52.9077 0.793457 54.4946 2.38037C56.0815 3.96729 56.875 5.88216 56.875 8.125C56.875 8.16732 56.8644 8.24137 56.8433 8.34717C56.8221 8.45296 56.8115 8.52702 56.8115 8.56934C59.2236 9.24642 61.1914 10.5688 62.7148 12.5366C64.2383 14.5044 65 16.7578 65 19.2969ZM12.1875 56.875C13.3301 56.875 14.2928 57.2664 15.0757 58.0493C15.8586 58.8322 16.25 59.7843 16.25 60.9058C16.25 62.0272 15.848 62.9899 15.0439 63.7939C14.2399 64.598 13.2772 65 12.1558 65C11.0343 65 10.0822 64.598 9.29932 63.7939C8.51644 62.9899 8.125 62.0378 8.125 60.9375C8.125 59.8372 8.51644 58.8851 9.29932 58.0811C10.0822 57.277 11.0449 56.875 12.1875 56.875ZM22.3438 44.6875C24.0365 44.6875 25.4753 45.2799 26.6602 46.4648C27.8451 47.6497 28.4375 49.0885 28.4375 50.7812C28.4375 52.474 27.8451 53.9128 26.6602 55.0977C25.4753 56.2826 24.0365 56.875 22.3438 56.875C20.651 56.875 19.2122 56.2826 18.0273 55.0977C16.8424 53.9128 16.25 52.474 16.25 50.7812C16.25 49.0885 16.8424 47.6497 18.0273 46.4648C19.2122 45.2799 20.651 44.6875 22.3438 44.6875Z" fill="currentColor"/></svg>
