<svg viewBox="0 0 20 20" xmlns="http://www.w3.org/2000/svg"><path d="m15.92 1.5h-3a.5.5 0 0 0 -.5.5v.5h-1.35c-4.55 0-6 1.67-7.81 4.21a.49.49 0 0 0 0 .52.48.48 0 0 0 .44.27h3.89l-.66 8a3 3 0 0 0 .74 2.21 2.45 2.45 0 0 0 3.66 0 3 3 0 0 0 .74-2.21l-.66-8h1v.5a.5.5 0 0 0 .5.5h3a.5.5 0 0 0 .5-.5v-6a.5.5 0 0 0 -.49-.5zm-4.85 14.05a1.93 1.93 0 0 1 -.48 1.45 1.48 1.48 0 0 1 -2.18 0 1.93 1.93 0 0 1 -.48-1.45l.67-8h1.8zm-6.43-9c1.39-1.88 2.76-3 6.43-3h1.36v3zm10.78 1h-2v-5h2z" fill="currentColor" /></svg>
