<svg viewBox="0 0 20 20" xmlns="http://www.w3.org/2000/svg" aria-hidden="true"><path d="m17.23 4.8a1.37 1.37 0 0 0 -1.82 0l-8.02 6.2a.47.47 0 0 0 -.24 0c-1.84.18-1.86 1.74-1.87 2.89s0 1.72-.69 2a.5.5 0 0 0 -.32.46.51.51 0 0 0 .31.47 6.3 6.3 0 0 0 2.42.37 4.67 4.67 0 0 0 3-.91 2 2 0 0 0 .73-1.34.43.43 0 0 0 .2-.15l6.33-8.17a1.37 1.37 0 0 0 -.03-1.82zm-7.89 10.72a4.43 4.43 0 0 1 -3.52.55 4 4 0 0 0 .46-2.23c0-1.32.1-1.82 1-1.91l2.42 2.43a.54.54 0 0 0 0 .18.91.91 0 0 1 -.36.98zm1.14-1.79-2.19-2.18.6-.47 2 2.05zm6-7.72-4.9 6.32-1.89-1.87 6.31-4.9a.4.4 0 0 1 .5 0 .4.4 0 0 1 -.04.44z" fill="currentColor" /></svg>
