<svg xmlns="http://www.w3.org/2000/svg" aria-hidden="true" viewBox="0 0 56 56"><style>@media (prefers-color-scheme:dark){g{stroke:#fff}}@media (prefers-color-scheme:light){g{stroke:#000}}</style><g fill="none" stroke-linecap="round" stroke-linejoin="round" stroke-width="2"><path d="M14.74 29.03 4.02 24.74V10.81l10.72 4.29zM14.74 29.03l10.72-4.29V10.81L14.74 15.1zM4.02 10.81l10.72-4.29 10.72 4.29M41.28 29.03l-10.71-4.29V10.81l10.71 4.29zM41.28 29.03 52 24.74V10.81L41.28 15.1zM30.57 10.81l10.71-4.29L52 10.81M28.02 51.48 17.31 47.2V33.26l10.71 4.29zM28.02 51.48l10.72-4.28V33.26l-10.72 4.29zM17.31 33.26l10.71-4.28 10.72 4.28"/></g></svg>
