<?xml version="1.0" standalone="no"?>
<!DOCTYPE svg PUBLIC "-//W3C//DTD SVG 20010904//EN"
 "http://www.w3.org/TR/2001/REC-SVG-20010904/DTD/svg10.dtd">
<svg version="1.0" xmlns="http://www.w3.org/2000/svg"
 width="700.000000pt" height="700.000000pt" viewBox="0 0 700.000000 700.000000"
 preserveAspectRatio="xMidYMid meet">
<metadata>
Created by potrace 1.11, written by Peter Selinger 2001-2013
</metadata>
<g transform="translate(0.000000,700.000000) scale(0.100000,-0.100000)"
fill="#000000" stroke="none">
<path d="M1775 6294 c-22 -8 -49 -18 -60 -24 -11 -5 -146 -59 -300 -120 -154
-61 -289 -115 -300 -120 -11 -5 -146 -59 -300 -120 -154 -61 -294 -118 -312
-126 -17 -7 -36 -14 -41 -14 -22 0 -71 -52 -78 -83 -9 -40 -9 -1760 0 -1808 3
-20 17 -46 29 -58 31 -28 1393 -574 1432 -574 24 1 195 63 280 103 19 9 261
105 850 340 285 113 318 133 329 193 4 19 6 430 5 913 -1 957 1 922 -57 956
-56 33 -1384 558 -1410 557 -15 0 -45 -7 -67 -15z m570 -444 c264 -106 484
-194 488 -197 4 -3 -88 -43 -205 -90 -117 -47 -226 -91 -243 -98 -16 -7 -145
-59 -285 -115 l-255 -101 -85 32 c-47 17 -103 40 -125 49 -110 49 -772 310
-785 310 -27 1 31 26 415 179 209 84 389 156 400 161 67 32 172 69 185 66 8
-2 231 -90 495 -196z m-1377 -521 c180 -72 343 -138 362 -146 50 -22 59 -25
230 -93 l155 -61 0 -732 c0 -647 -2 -732 -16 -730 -17 3 -1059 420 -1066 427
-4 4 -5 358 -3 1229 0 130 2 237 5 237 3 0 153 -59 333 -131z m2090 -603 l0
-733 -297 -118 c-163 -65 -309 -124 -326 -131 -23 -10 -272 -110 -453 -181
-10 -4 -12 143 -10 731 l3 737 485 195 c267 107 496 199 510 205 14 5 34 13
45 18 11 6 25 10 31 10 8 1 11 -198 12 -733z"/>
<path d="M4445 6035 c-419 -168 -699 -285 -713 -299 -13 -13 -27 -38 -30 -57
-4 -19 -7 -433 -7 -920 1 -819 2 -889 18 -913 10 -14 27 -32 40 -40 12 -8 261
-110 552 -226 292 -117 544 -218 560 -225 110 -48 270 -108 293 -108 24 -1
144 42 322 118 30 13 165 67 300 120 135 53 263 105 285 114 22 10 146 60 277
112 211 84 239 98 260 128 l23 35 1 890 c1 504 -2 904 -8 922 -5 17 -19 40
-31 52 -26 24 -1367 562 -1417 569 -28 3 -168 -49 -725 -272z m1180 -169 c242
-97 449 -181 460 -186 11 -5 30 -12 43 -15 12 -4 22 -10 22 -14 0 -4 -223 -96
-495 -205 l-495 -198 -318 127 c-174 70 -397 159 -494 198 -98 39 -178 74
-178 77 0 3 19 12 43 21 65 24 648 258 682 273 93 43 262 106 275 102 8 -2
213 -83 455 -180z m-1564 -447 c57 -22 118 -47 134 -54 17 -7 203 -83 415
-167 212 -85 393 -159 403 -165 18 -9 19 -39 18 -714 0 -387 0 -716 0 -731 -1
-28 -7 -29 -56 -7 -11 5 -245 99 -519 208 -274 110 -502 204 -505 209 -5 8 -7
1391 -2 1450 1 16 -6 18 112 -29z m2314 -689 c0 -468 -4 -727 -10 -735 -5 -7
-194 -85 -420 -174 -225 -90 -419 -166 -430 -171 -74 -34 -220 -89 -223 -85
-9 8 -4 1457 4 1464 8 7 731 299 834 337 19 7 78 31 130 53 52 21 99 38 105
37 6 -2 10 -267 10 -726z"/>
<path d="M3438 3485 c-34 -12 -351 -137 -703 -278 -526 -211 -645 -262 -667
-287 -25 -27 -28 -38 -29 -103 0 -39 0 -449 0 -909 0 -906 -2 -875 53 -910 13
-8 79 -36 148 -63 69 -26 143 -56 165 -65 183 -80 1079 -430 1099 -430 24 0
36 4 111 35 17 7 152 61 300 120 149 59 284 113 300 119 17 7 62 26 100 41 39
15 84 33 100 40 17 7 62 25 100 40 39 14 79 31 90 36 11 4 83 33 159 63 159
62 191 86 200 148 3 24 5 438 5 921 l-1 877 -22 33 c-20 29 -76 54 -656 285
-349 139 -657 262 -685 274 -88 37 -98 38 -167 13z m141 -272 c36 -14 84 -33
106 -42 22 -10 214 -87 427 -172 213 -85 384 -157 380 -160 -4 -3 -113 -47
-242 -98 -129 -51 -248 -99 -265 -106 -16 -7 -132 -54 -256 -103 l-226 -90
-489 195 c-269 107 -492 198 -496 202 -5 4 198 89 450 189 251 100 468 188
482 195 38 20 57 18 129 -10z m-1167 -603 c57 -23 117 -47 133 -54 17 -8 107
-44 200 -81 94 -37 184 -73 200 -80 17 -7 118 -48 225 -90 107 -43 197 -80
200 -82 3 -2 5 -334 5 -738 l0 -733 -50 20 c-27 11 -140 56 -250 100 -110 44
-228 91 -262 104 -34 12 -77 29 -95 37 -18 8 -64 27 -103 42 -38 15 -83 34
-100 41 -16 7 -74 30 -127 50 l-98 38 0 733 c0 472 3 733 10 733 5 0 56 -18
112 -40z m2305 -693 l0 -732 -311 -124 c-171 -67 -330 -132 -353 -142 -24 -10
-49 -19 -56 -19 -7 0 -17 -4 -22 -9 -6 -4 -55 -25 -110 -46 -55 -21 -113 -43
-130 -51 -16 -7 -47 -20 -68 -28 l-37 -15 2 736 c3 642 5 737 18 744 8 4 40
17 70 29 30 11 64 25 75 30 11 4 153 61 315 125 162 65 309 123 325 130 124
53 253 103 266 104 14 1 16 -70 16 -732z"/>
</g>
</svg>
